<?xml version="1.0" encoding="UTF-8" standalone="no"?>
<!DOCTYPE svg PUBLIC "-//W3C//DTD SVG 1.1//EN" "http://www.w3.org/Graphics/SVG/1.1/DTD/svg11.dtd">
<svg width="100%" height="100%" viewBox="0 0 512 512" version="1.1" xmlns="http://www.w3.org/2000/svg" xmlns:xlink="http://www.w3.org/1999/xlink" xml:space="preserve" xmlns:serif="http://www.serif.com/" style="fill-rule:evenodd;clip-rule:evenodd;stroke-miterlimit:10;">
    <g transform="matrix(0.173932,0,0,0.173932,-378.091,-95.2159)">
        <g id="Layer-1" serif:id="Layer 1">
            <g id="g309">
                <g id="colour">
                    <g id="g25">
                        <path id="path11" d="M3893.86,1691.11C3884.94,1688.2 3876.21,1685.25 3867.67,1682.19C3876.21,1685.25 3884.94,1688.24 3893.86,1691.11ZM3803.94,1656.27C3798.27,1653.66 3792.68,1650.97 3787.2,1648.25C3792.68,1651.01 3798.24,1653.66 3803.94,1656.27ZM4626.75,1638.99C4666.13,1457.5 4667.34,1234.58 4635.29,975.534C4517.14,859.162 4387.31,784.857 4247.21,747.78L4247.21,747.742C4246.9,747.666 4246.56,747.591 4246.26,747.515C4140.28,719.546 4028.45,712.819 3911.32,725.216C3907.96,725.518 3904.63,725.858 3901.27,726.274C3779.11,740.258 3651.25,774.803 3518.36,827.528C3533.82,1071.38 3524.33,1295.55 3481.36,1493.33C3475.16,1522.13 3468.17,1550.36 3460.5,1578.03C3458.91,1583.66 3457.32,1589.29 3455.66,1594.88C3454.22,1599.91 3452.75,1604.9 3451.2,1609.89C3450.26,1613.03 3449.31,1616.16 3448.33,1619.26C3446.7,1624.52 3445.04,1629.73 3443.34,1634.91C3441.34,1641.15 3439.26,1647.35 3437.14,1653.51C3435.06,1659.67 3432.91,1665.79 3430.72,1671.87C3428.67,1677.58 3426.63,1683.21 3424.48,1688.84C3423.91,1690.43 3423.31,1692.02 3422.66,1693.61C3421.42,1697.01 3420.13,1700.37 3418.77,1703.77C3418.55,1704.45 3418.28,1705.1 3417.98,1705.78C3417.37,1707.36 3416.73,1708.99 3416.09,1710.58C3413.97,1715.94 3411.82,1721.27 3409.62,1726.6C3407.28,1732.27 3404.9,1737.87 3402.48,1743.46C3400.59,1747.88 3398.66,1752.3 3396.66,1756.65C3395.72,1758.8 3394.77,1760.92 3393.79,1763.04C3393.71,1763.23 3393.64,1763.45 3393.52,1763.64C3391.33,1768.48 3389.1,1773.28 3386.84,1778.04C3384.19,1783.75 3381.43,1789.42 3378.63,1795.05C3375.87,1800.68 3373.08,1806.27 3370.17,1811.83C3364.57,1822.72 3358.79,1833.45 3352.86,1844.07C3352.33,1845.05 3351.76,1846.04 3351.23,1846.98C3348.81,1851.29 3346.36,1855.52 3343.9,1859.75C3343.67,1860.13 3343.45,1860.55 3343.22,1860.93C3341.22,1864.33 3339.21,1867.73 3337.17,1871.13C3334.87,1874.99 3332.52,1878.8 3330.14,1882.62C3327.72,1886.51 3325.3,1890.37 3322.85,1894.22C3320.39,1898.08 3317.9,1901.93 3315.4,1905.71C3312.79,1909.72 3310.15,1913.69 3307.46,1917.62C3300.66,1927.67 3293.67,1937.58 3286.45,1947.33C3284.6,1949.86 3282.75,1952.35 3280.86,1954.85C3277.45,1959.42 3273.98,1963.96 3270.46,1968.45C3268.08,1971.52 3265.66,1974.58 3263.21,1977.64C3260.79,1980.7 3258.29,1983.76 3255.8,1986.78C3253,1990.19 3250.17,1993.59 3247.29,1996.99C3245.1,1999.6 3242.91,2002.21 3240.64,2004.78C3238.07,2007.76 3235.5,2010.71 3232.89,2013.66C3190.38,2061.69 3142.6,2105.61 3089.24,2145.15C3089.01,2145.34 3088.74,2145.52 3088.48,2145.71C2986.77,2220.85 2864.77,2280.04 2719.94,2321.2C2762.87,2317.49 2803.46,2315.94 2841.68,2316.47C2843.87,2316.51 2846.06,2316.55 2848.21,2316.59C2857.89,2316.78 2867.41,2317.12 2876.79,2317.57C2879.92,2317.72 2883.02,2317.87 2886.12,2318.06C2889.64,2318.25 2893.15,2318.48 2896.63,2318.74C2897.95,2318.82 2899.24,2318.93 2900.52,2319.04C2902.41,2319.16 2904.3,2319.31 2906.19,2319.46C2914.55,2320.14 2922.78,2320.93 2930.87,2321.8C2932.95,2322.03 2935.07,2322.29 2937.11,2322.52C2940.32,2322.93 2943.46,2323.31 2946.6,2323.73C2949.69,2324.14 2952.83,2324.56 2955.93,2325.01C2957.86,2325.28 2959.82,2325.54 2961.75,2325.85C2967.99,2326.79 2974.15,2327.81 2980.23,2328.91C2982.35,2329.25 2984.43,2329.62 2986.51,2330.04C2988.59,2330.42 2990.66,2330.84 2992.74,2331.25C2995.99,2331.89 2999.24,2332.57 3002.46,2333.25C3008.28,2334.5 3014.06,2335.79 3019.73,2337.15C3026.27,2338.73 3032.69,2340.43 3039.01,2342.17C3041.76,2342.93 3044.49,2343.72 3047.21,2344.52C3050.84,2345.58 3054.39,2346.67 3057.94,2347.8C3060.96,2348.75 3063.95,2349.73 3066.93,2350.72C3070.19,2351.81 3073.36,2352.91 3076.53,2354.04C3079.71,2355.18 3082.85,2356.31 3085.95,2357.48C3089.39,2358.8 3092.75,2360.13 3096.08,2361.45C3098.8,2362.55 3101.48,2363.68 3104.13,2364.81C3109.45,2367.08 3114.71,2369.42 3119.85,2371.84C3122.42,2373.05 3124.95,2374.3 3127.48,2375.55C3129.79,2376.68 3132.06,2377.81 3134.29,2378.99C3137.8,2380.8 3141.28,2382.65 3144.68,2384.54C3146.95,2385.79 3149.18,2387.04 3151.37,2388.32C3154.62,2390.17 3157.8,2392.1 3160.93,2394.03C3164.03,2395.96 3167.09,2397.88 3170.12,2399.85C3170.15,2399.89 3170.19,2399.89 3170.23,2399.92C3173.29,2401.97 3176.28,2403.97 3179.26,2406.05C3182.21,2408.13 3185.16,2410.2 3188.03,2412.36C3189.88,2413.72 3191.74,2415.12 3193.55,2416.52C3194.57,2417.31 3195.63,2418.14 3196.65,2418.97C3197.71,2419.8 3198.76,2420.64 3199.79,2421.47C3202.58,2423.7 3205.38,2426.04 3208.1,2428.35C3209.39,2429.41 3210.63,2430.54 3211.92,2431.71C3214.79,2434.24 3217.59,2436.81 3220.35,2439.42C3221.74,2440.67 3223.11,2441.99 3224.47,2443.35C3226.2,2445.05 3227.87,2446.72 3229.57,2448.45C3231.23,2450.19 3232.89,2451.89 3234.56,2453.63C3235.16,2454.24 3235.73,2454.84 3236.33,2455.48L3236.33,2455.52C3240.08,2459.57 3243.74,2463.72 3247.22,2467.92C3248.5,2469.43 3249.75,2470.9 3250.96,2472.45C3255.95,2478.65 3260.71,2485 3265.25,2491.5C3266.76,2493.66 3268.23,2495.85 3269.67,2498.04C3269.78,2498.19 3269.9,2498.34 3270.01,2498.53C3270.73,2499.55 3271.37,2500.53 3272.01,2501.59C3273.37,2503.71 3274.73,2505.9 3276.06,2508.06C3276.4,2508.62 3276.74,2509.19 3277.08,2509.76C3277.45,2510.32 3277.8,2510.89 3278.1,2511.46C3279.42,2513.65 3280.67,2515.84 3281.91,2518.07C3283.12,2520.19 3284.33,2522.34 3285.51,2524.53C3285.54,2524.65 3285.62,2524.76 3285.69,2524.88C3286.87,2527.07 3288,2529.3 3289.13,2531.53C3290.31,2533.8 3291.44,2536.1 3292.53,2538.41C3292.99,2539.39 3293.44,2540.33 3293.9,2541.32C3294.01,2541.47 3294.09,2541.66 3294.16,2541.85C3295.45,2544.61 3296.69,2547.36 3297.9,2550.16C3299.04,2552.73 3300.13,2555.34 3301.19,2557.98C3301.98,2559.91 3302.78,2561.84 3303.5,2563.77C3304.03,2565.13 3304.55,2566.49 3305.05,2567.85C3305.5,2568.95 3305.88,2570.04 3306.26,2571.14C3306.52,2571.86 3306.78,2572.57 3307.01,2573.29C3307.39,2574.24 3307.73,2575.18 3308.03,2576.16C3309.32,2579.83 3310.53,2583.5 3311.7,2587.2C3312.53,2589.92 3313.36,2592.64 3314.15,2595.4C3315.06,2598.5 3315.93,2601.6 3316.72,2604.78C3317.56,2607.95 3318.35,2611.12 3319.11,2614.34C3319.86,2617.55 3320.58,2620.8 3321.3,2624.01C3321.9,2626.89 3322.47,2629.8 3323.04,2632.74C3323.07,2632.86 3323.07,2633.01 3323.11,2633.16C3323.75,2636.37 3324.28,2639.66 3324.81,2642.91C3324.89,2643.21 3324.93,2643.48 3324.96,2643.78C3325.15,2645.03 3325.38,2646.27 3325.57,2647.56C3325.98,2650.09 3326.36,2652.66 3326.7,2655.23C3327.57,2661.51 3328.29,2667.86 3328.89,2674.24C3329.24,2677.68 3329.54,2681.16 3329.8,2684.64C3333.2,2683.62 3336.61,2682.56 3340.08,2681.5C3342.95,2680.63 3345.83,2679.8 3348.74,2678.93C3351.12,2678.21 3353.58,2677.49 3356.03,2676.78C3359.43,2675.75 3362.91,2674.77 3366.43,2673.75C3371.45,2672.32 3376.55,2670.92 3381.73,2669.52C3384.42,2668.8 3387.1,2668.08 3389.82,2667.36C3390.8,2667.1 3391.75,2666.84 3392.73,2666.61C3395.72,2665.81 3398.7,2665.06 3401.73,2664.3C3405.73,2663.32 3409.78,2662.34 3413.9,2661.39C3415.52,2660.98 3417.18,2660.6 3418.85,2660.26C3423.42,2659.2 3428.07,2658.18 3432.83,2657.2C3434.95,2656.74 3437.1,2656.29 3439.29,2655.87C3440.28,2655.65 3441.26,2655.46 3442.24,2655.31C3443.87,2654.97 3445.49,2654.66 3447.16,2654.36C3455.43,2652.78 3463.9,2651.3 3472.55,2650.02C3475.05,2649.6 3477.51,2649.26 3480,2648.92C3482.19,2648.58 3484.38,2648.28 3486.61,2648.01C3501.09,2646.09 3516.13,2644.57 3531.82,2643.51C3534.65,2643.78 3537.45,2644.08 3540.21,2644.5C3541.83,2644.69 3543.42,2644.91 3545.01,2645.22C3545.69,2645.29 3546.33,2645.41 3547.01,2645.52C3548.52,2645.74 3550.07,2646.05 3551.55,2646.35C3551.74,2646.35 3551.92,2646.39 3552.08,2646.46C3553.66,2646.76 3555.29,2647.11 3556.84,2647.48C3558.84,2647.94 3560.84,2648.43 3562.81,2648.92C3562.96,2648.92 3563.15,2648.96 3563.34,2649.03C3565.15,2649.52 3566.97,2650.05 3568.78,2650.58C3570.75,2651.15 3572.64,2651.75 3574.56,2652.4C3575.74,2652.74 3576.87,2653.12 3578.04,2653.57C3578.8,2653.83 3579.51,2654.1 3580.27,2654.36C3584.05,2655.76 3587.75,2657.24 3591.38,2658.86C3593.2,2659.65 3595.01,2660.49 3596.83,2661.35C3600.38,2663.09 3603.89,2664.91 3607.37,2666.87C3609.11,2667.78 3610.81,2668.8 3612.51,2669.86C3614.21,2670.84 3615.91,2671.9 3617.58,2672.99C3618.41,2673.49 3619.24,2674.05 3620.07,2674.62C3620.9,2675.15 3621.73,2675.72 3622.56,2676.28C3623.43,2676.85 3624.26,2677.45 3625.13,2678.06C3625.93,2678.63 3626.68,2679.16 3627.44,2679.72C3627.86,2679.99 3628.23,2680.29 3628.65,2680.63C3629.9,2681.5 3631.11,2682.41 3632.32,2683.35C3634.05,2684.67 3635.79,2686.03 3637.49,2687.43C3638.93,2688.61 3640.37,2689.81 3641.76,2691.06C3642.78,2691.93 3643.81,2692.8 3644.79,2693.71C3645.85,2694.58 3646.9,2695.56 3647.96,2696.54C3649.36,2697.79 3650.76,2699.07 3652.12,2700.43C3653.59,2701.83 3655.03,2703.23 3656.47,2704.7C3657.49,2705.73 3658.51,2706.78 3659.53,2707.8C3660.96,2709.32 3662.4,2710.83 3663.8,2712.34C3665.24,2713.89 3666.63,2715.44 3668.03,2717.03C3670.11,2719.37 3672.15,2721.75 3674.15,2724.17C3674.23,2724.21 3674.27,2724.25 3674.31,2724.32C3676.31,2726.74 3678.31,2729.24 3680.28,2731.73C3681.34,2733.05 3682.39,2734.41 3683.41,2735.77C3688.25,2742.09 3692.94,2748.66 3697.51,2755.46C3699.02,2757.69 3700.5,2759.96 3702.01,2762.27C3703.6,2764.76 3705.18,2767.26 3706.77,2769.79C3748.16,2808.53 3787.39,2826.44 3823.37,2812.38C3825.75,2812.72 3828.09,2813.06 3830.36,2813.48C3832.67,2813.82 3834.9,2814.24 3837.09,2814.65C3839.58,2815.11 3842.08,2815.6 3844.5,2816.13C3846.35,2816.5 3848.13,2816.88 3849.9,2817.34C3851.79,2817.75 3853.64,2818.2 3855.42,2818.66C3855.61,2818.73 3855.8,2818.77 3855.99,2818.81C3857.8,2819.26 3859.54,2819.75 3861.28,2820.25C3861.58,2820.32 3861.88,2820.43 3862.19,2820.51C3863.77,2820.93 3865.32,2821.45 3866.84,2821.91C3869.25,2822.66 3871.6,2823.46 3873.86,2824.29C3875.26,2824.78 3876.62,2825.27 3877.98,2825.84C3879.35,2826.33 3880.67,2826.9 3881.95,2827.46C3882.86,2827.8 3883.73,2828.18 3884.6,2828.6C3885.05,2828.79 3885.54,2828.98 3886,2829.24C3887.02,2829.69 3888,2830.15 3888.98,2830.64C3891.33,2831.77 3893.59,2832.98 3895.75,2834.23C3896.09,2834.42 3896.47,2834.61 3896.77,2834.84C3900.7,2837.14 3904.29,2839.6 3907.58,2842.2C3909.54,2843.79 3911.39,2845.42 3913.13,2847.12C3914,2847.91 3914.87,2848.78 3915.67,2849.69C3917.9,2852.07 3919.86,2854.6 3921.6,2857.21C3921.86,2857.59 3922.13,2857.97 3922.39,2858.38C3922.62,2858.76 3922.85,2859.1 3923.07,2859.48C3923.41,2860.04 3923.79,2860.65 3924.09,2861.25C3924.59,2862.09 3925.04,2862.95 3925.45,2863.82C3925.76,2864.47 3926.1,2865.03 3926.32,2865.68C3926.36,2865.75 3926.44,2865.83 3926.44,2865.94C3926.66,2866.43 3926.89,2866.92 3927.08,2867.41C3927.35,2868.06 3927.61,2868.7 3927.84,2869.38C3927.99,2869.8 3928.14,2870.25 3928.29,2870.7C3928.37,2870.85 3928.4,2871.01 3928.44,2871.16C3928.74,2871.87 3928.93,2872.59 3929.12,2873.31C3929.5,2874.6 3929.84,2875.92 3930.1,2877.28C3930.29,2878.15 3930.48,2879.02 3930.6,2879.92C3931.2,2883.48 3931.5,2887.18 3931.5,2891C3931.5,2892.25 3931.46,2893.57 3931.39,2894.85C3931.31,2896.59 3931.16,2898.33 3930.93,2900.11C3930.82,2901.05 3930.71,2901.96 3930.56,2902.9C3930.48,2903.47 3930.41,2904.04 3930.29,2904.61C3930.18,2905.51 3929.99,2906.42 3929.8,2907.33C3929.5,2908.84 3929.16,2910.39 3928.78,2911.94C3928.48,2913.26 3928.14,2914.55 3927.76,2915.87C3925.87,2922.6 3923.26,2929.62 3919.94,2936.99C3918.65,2939.83 3917.25,2942.74 3915.78,2945.65C3915.59,2946.07 3915.36,2946.48 3915.14,2946.9C3914.27,2948.6 3913.36,2950.3 3912.42,2952C3908.6,2958.99 3904.18,2966.25 3899.15,2973.81C3898.47,2974.83 3897.79,2975.85 3897.03,2976.91C3896.2,2978.19 3895.29,2979.48 3894.39,2980.76C3892.61,2983.33 3890.72,2985.94 3888.79,2988.55C3887.85,2989.87 3886.87,2991.19 3885.85,2992.55C3881.35,2998.56 3876.51,3004.72 3871.33,3011.04C3870.16,3012.43 3868.99,3013.87 3867.78,3015.31C3853.42,3032.47 3836.6,3050.8 3817.21,3070.3C3813.96,3073.55 3810.67,3076.84 3807.31,3080.13C3803.94,3083.45 3800.47,3086.82 3796.95,3090.18C3791.7,3095.24 3786.26,3100.38 3780.66,3105.6C3763.84,3121.25 3745.59,3137.58 3725.86,3154.58C3896.05,3056.28 4056.26,2910.5 4206.01,2715.21C4293.28,2862.84 4418,2988.7 4587.97,3088.25C4777.36,3142.79 4923.14,3127.67 5003.11,3007.52C4612.65,2729.46 4525.61,2247.46 4626.75,1638.99ZM4432.4,1563.29C4429.91,1565.56 4427.38,1567.79 4424.84,1569.98C4422.24,1572.28 4419.59,1574.55 4416.94,1576.82C4412.56,1580.56 4408.14,1584.23 4403.72,1587.82C4399.98,1590.88 4396.19,1593.87 4392.38,1596.81C4391.85,1597.19 4391.32,1597.61 4390.79,1598.02C4388.6,1599.76 4386.37,1601.42 4384.14,1603.09C4373.4,1611.17 4362.48,1618.92 4351.41,1626.26C4351.03,1626.52 4350.61,1626.78 4350.24,1627.05C4348.72,1628.03 4347.18,1629.01 4345.66,1630C4343.81,1631.21 4341.96,1632.38 4340.11,1633.55C4338.86,1634.34 4337.57,1635.14 4336.33,1635.93C4333.34,1637.78 4330.32,1639.63 4327.29,1641.45C4324.57,1643.07 4321.81,1644.7 4319.06,1646.29C4316.15,1647.99 4313.23,1649.61 4310.32,1651.24C4304.47,1654.49 4298.57,1657.66 4292.6,1660.69C4289.76,1662.16 4286.97,1663.6 4284.13,1664.96C4283.98,1665.03 4283.79,1665.11 4283.64,1665.18C4280.65,1666.7 4277.63,1668.13 4274.61,1669.53C4271.58,1670.97 4268.52,1672.37 4265.5,1673.73C4265.31,1673.8 4265.12,1673.91 4264.93,1673.99C4262.06,1675.28 4259.19,1676.56 4256.28,1677.77C4240.93,1684.35 4225.21,1690.28 4209.18,1695.53C4205.97,1696.59 4202.76,1697.61 4199.55,1698.6C4197.28,1699.31 4195.01,1699.99 4192.74,1700.64C4190.97,1701.16 4189.15,1701.69 4187.34,1702.19C4184.92,1702.9 4182.46,1703.58 4179.97,1704.23C4176.68,1705.13 4173.39,1706 4170.1,1706.8C4166.78,1707.67 4163.45,1708.46 4160.13,1709.22C4156.8,1709.97 4153.44,1710.77 4150.07,1711.45C4149.96,1711.48 4149.85,1711.48 4149.77,1711.52C4147.35,1712.05 4144.89,1712.54 4142.44,1713C4142.02,1713.11 4141.57,1713.18 4141.11,1713.26C4137.52,1713.98 4133.93,1714.66 4130.31,1715.3C4126.68,1715.94 4123.05,1716.55 4119.38,1717.12C4116.06,1717.64 4112.69,1718.17 4109.33,1718.63C4105.78,1719.12 4102.15,1719.61 4098.52,1720.03C4095.04,1720.48 4091.49,1720.86 4087.97,1721.24C4084.88,1721.58 4081.74,1721.88 4078.6,1722.14C4071.99,1722.75 4065.26,1723.2 4058.49,1723.62C4056.95,1723.69 4055.36,1723.77 4053.81,1723.84C4043.6,1724.33 4033.29,1724.6 4022.82,1724.64C4018.17,1723.69 4013.59,1722.71 4009.02,1721.73C4006.04,1721.08 4003.05,1720.44 4000.1,1719.76C3994.47,1718.51 3988.91,1717.27 3983.39,1715.94C3982,1715.64 3980.6,1715.3 3979.24,1714.96C3976.33,1714.28 3973.42,1713.56 3970.55,1712.84C3968.58,1712.35 3966.69,1711.9 3964.76,1711.41C3962.57,1710.88 3960.38,1710.31 3958.19,1709.75C3954.67,1708.84 3951.16,1707.93 3947.72,1706.99C3943.94,1706 3940.23,1704.94 3936.53,1703.92C3931.99,1702.68 3927.46,1701.39 3923,1700.07C3918.54,1698.78 3914.08,1697.46 3909.69,1696.1C3906.93,1695.27 3904.21,1694.4 3901.53,1693.57C3898.96,1692.74 3896.39,1691.94 3893.86,1691.11C3884.94,1688.2 3876.21,1685.25 3867.67,1682.19C3867.25,1682.04 3866.8,1681.85 3866.38,1681.7C3862.3,1680.27 3858.26,1678.75 3854.25,1677.24C3850.28,1675.77 3846.31,1674.22 3842.42,1672.67C3837.28,1670.66 3832.21,1668.59 3827.22,1666.51C3825.22,1665.68 3823.26,1664.84 3821.29,1663.98C3818.34,1662.73 3815.43,1661.44 3812.56,1660.16C3809.65,1658.87 3806.78,1657.59 3803.94,1656.27C3798.27,1653.66 3792.68,1650.97 3787.2,1648.25C3785.12,1647.27 3783.08,1646.25 3781.08,1645.19C3778.62,1643.94 3776.16,1642.66 3773.74,1641.41C3764.94,1636.76 3756.4,1632 3748.12,1627.09C3746.04,1625.84 3743.96,1624.59 3741.88,1623.31C3741.54,1623.12 3741.2,1622.93 3740.9,1622.7C3739.69,1621.98 3738.52,1621.27 3737.35,1620.51C3731.98,1617.18 3726.76,1613.78 3721.7,1610.34C3719.13,1608.61 3716.64,1606.87 3714.14,1605.09C3711.42,1603.16 3708.74,1601.2 3706.09,1599.27C3703.52,1597.34 3700.95,1595.41 3698.46,1593.41C3696.45,1591.9 3694.53,1590.35 3692.6,1588.76C3691.35,1587.78 3690.1,1586.76 3688.89,1585.78C3687.12,1584.3 3685.34,1582.83 3683.6,1581.35C3683.57,1581.35 3683.57,1581.35 3683.53,1581.32C3681.37,1579.47 3679.33,1577.69 3677.25,1575.8C3675.21,1574.02 3673.17,1572.17 3671.21,1570.32C3664.74,1564.31 3658.58,1558.15 3652.72,1551.87C3651.18,1550.21 3649.62,1548.55 3648.15,1546.85C3646.68,1545.22 3645.28,1543.6 3643.84,1541.97C3643.12,1541.1 3642.37,1540.23 3641.65,1539.36C3641.35,1539.02 3641.05,1538.68 3640.78,1538.31C3639.68,1537.1 3638.66,1535.89 3637.72,1534.64C3636.06,1532.6 3634.39,1530.48 3632.73,1528.37C3631.6,1526.85 3630.43,1525.38 3629.33,1523.83C3629.03,1523.49 3628.8,1523.15 3628.57,1522.81C3626.99,1520.65 3625.4,1518.5 3623.89,1516.35C3622.3,1514.12 3620.75,1511.81 3619.24,1509.54C3618.07,1507.77 3616.93,1505.99 3615.8,1504.21C3614.66,1502.44 3613.57,1500.66 3612.47,1498.85C3611.45,1497.18 3610.47,1495.48 3609.49,1493.82C3608.96,1492.88 3608.43,1491.97 3607.9,1491.02C3607.29,1490 3606.73,1488.98 3606.2,1487.96C3605.18,1486.11 3604.2,1484.26 3603.21,1482.41C3634.58,1473.37 3665.08,1463.58 3694.26,1452.62C3695.47,1452.21 3696.68,1451.75 3697.89,1451.3C3701.41,1449.98 3704.88,1448.62 3708.36,1447.26C3708.28,1447.18 3708.25,1447.11 3708.17,1447.03C3677.48,1411.73 3657.41,1353.34 3657.41,1287.27C3657.41,1179.52 3710.82,1092.17 3776.66,1092.17C3811.09,1092.17 3842.12,1116.02 3863.85,1154.19C3883.77,1189.04 3895.94,1235.83 3895.94,1287.27C3895.94,1288.52 3895.94,1289.73 3895.9,1290.97L3895.9,1291.43C3895.94,1293.16 3895.94,1294.87 3895.94,1296.57C3895.94,1302.8 3895.79,1309 3895.45,1315.12C3895.18,1315.54 3894.92,1315.96 3894.61,1316.37C3893.9,1324.35 3892.88,1332.13 3891.55,1339.69C3928.44,1320.94 3968.09,1315.2 4010.72,1320.68C4011.93,1320.83 4013.18,1320.98 4014.39,1321.17C4014.61,1321.17 4014.8,1321.21 4015.03,1321.25C4018.96,1321.81 4022.93,1322.49 4026.93,1323.29C4027.31,1323.36 4027.73,1323.44 4028.11,1323.52C4071.35,1331.94 4117.53,1351.26 4166.74,1379.68C4162.24,1360.48 4159.82,1339.99 4159.82,1318.68C4159.82,1210.92 4222.07,1123.58 4298.87,1123.58C4300.31,1123.58 4301.74,1123.62 4303.18,1123.69C4303.75,1123.69 4304.28,1123.73 4304.81,1123.77C4305.9,1123.81 4306.96,1123.92 4308.06,1123.99C4309.08,1124.11 4310.1,1124.22 4311.12,1124.33C4315.16,1124.83 4319.13,1125.54 4323.02,1126.53C4325.86,1127.21 4328.62,1128 4331.38,1128.94C4334.59,1130.04 4337.76,1131.25 4340.86,1132.65C4341.16,1132.76 4341.43,1132.88 4341.73,1133.03C4342.98,1133.59 4344.23,1134.2 4345.47,1134.84C4345.78,1134.95 4346.08,1135.11 4346.34,1135.29C4347.67,1135.94 4348.99,1136.65 4350.27,1137.37C4351.29,1137.94 4352.32,1138.51 4353.34,1139.15C4353.98,1139.49 4354.58,1139.87 4355.23,1140.28C4355.49,1140.43 4355.75,1140.59 4355.98,1140.78C4356.96,1141.34 4357.95,1141.98 4358.89,1142.66C4358.93,1142.66 4358.97,1142.7 4359.01,1142.74C4360.06,1143.46 4361.08,1144.18 4362.1,1144.93C4362.48,1145.16 4362.86,1145.42 4363.24,1145.76C4364.15,1146.41 4365.05,1147.09 4365.96,1147.81C4367.28,1148.79 4368.57,1149.81 4369.81,1150.87C4371.36,1152.15 4372.88,1153.47 4374.39,1154.87C4374.5,1154.95 4374.58,1155.02 4374.65,1155.1C4376.05,1156.35 4377.41,1157.67 4378.77,1159.03C4380.4,1160.62 4382.02,1162.32 4383.61,1164.02C4416.64,1199.66 4437.92,1255.67 4437.92,1318.68C4437.92,1333.27 4436.79,1347.48 4434.6,1361.16C4425.03,1421.78 4395.36,1471.79 4355.9,1496.69C4385.95,1515.7 4414.9,1534.83 4442.38,1554.18C4439.06,1557.28 4435.73,1560.3 4432.4,1563.29Z" style="fill:rgb(224,145,5);fill-rule:nonzero;"/>
                        <g id="g23">
                            <path id="path13" d="M3887.09,1688.92C3886.56,1689.37 3886.07,1689.98 3885.73,1690.85C3885.39,1691.68 3885.28,1692.74 3885.51,1693.68C3885.69,1694.63 3886.19,1695.38 3886.6,1695.84C3887.02,1696.29 3887.39,1696.48 3887.62,1696.55L3886.9,1698.75L3864.49,1691.15L3870.88,1673.31L3883.81,1677.73L3887.06,1678.83L3888.68,1679.39C3888.95,1679.51 3889.25,1679.43 3889.4,1680L3890.23,1680.27C3891.33,1680.61 3892.42,1680.87 3893.56,1681.13C3894.12,1681.29 3894.65,1681.51 3895.22,1681.59C3895.52,1681.59 3895.97,1681.13 3896.16,1681.51C3896.2,1681.66 3896.24,1681.7 3896.24,1681.93C3896.2,1682.23 3896.35,1682 3896.09,1683.06L3895.79,1684.31L3895.29,1686.16L3894.92,1687.67L3894.54,1689L3894.35,1689.68L3894.24,1690.02C3894.09,1690.17 3894.46,1689.98 3893.93,1690.28C3893.48,1690.55 3893.56,1691.11 3893.9,1691.15L3887.09,1688.92ZM3893.86,1691.11C3894.16,1691.15 3894.24,1691.72 3893.78,1691.98C3893.25,1692.28 3893.63,1692.09 3893.48,1692.25L3893.14,1693.27L3892.69,1694.55L3892.12,1695.99L3891.44,1697.8L3890.95,1698.97C3890.53,1699.99 3890.57,1699.69 3890.42,1699.96C3890.31,1700.11 3890.19,1700.14 3890.12,1700.22C3889.74,1700.41 3889.66,1699.77 3889.4,1699.58C3888.87,1699.31 3888.3,1699.16 3887.77,1698.93C3886.68,1698.48 3885.62,1697.99 3884.52,1697.58L3883.69,1697.27C3883.28,1697.61 3883.05,1697.39 3882.75,1697.31L3877.76,1695.61L3864.49,1691.11C3859.54,1689.45 3856.86,1684.04 3858.56,1679.09C3860.22,1674.14 3865.62,1671.46 3870.58,1673.16L3870.61,1673.16L3870.92,1673.27L3892.88,1680.79L3892.16,1682.99C3893.06,1683.29 3894.09,1683.7 3895.18,1684.38C3896.28,1685.07 3897.41,1686.05 3898.28,1687.22C3899.15,1688.39 3899.72,1689.68 3900.06,1690.73C3900.4,1691.79 3900.55,1692.66 3900.7,1693.34L3893.86,1691.11Z" style="fill-rule:nonzero;"/>
                            <path id="path15" d="M3797.48,1653.28C3797.03,1653.73 3796.53,1654.34 3796.23,1655.17C3795.89,1656 3795.78,1657.1 3796.01,1658.12C3796.2,1659.14 3796.69,1660.01 3797.18,1660.54C3797.67,1661.1 3798.09,1661.37 3798.43,1661.52L3797.44,1663.63L3783.04,1656.76L3791.51,1639.79L3799.71,1643.72L3802.77,1645.19C3802.92,1645.3 3803.19,1645.23 3803.15,1645.76L3803.68,1645.98C3804.36,1646.29 3805.12,1646.51 3805.83,1646.78C3806.17,1646.93 3806.51,1647.12 3806.89,1647.19C3807.12,1647.19 3807.53,1646.74 3807.57,1647.08C3807.57,1647.23 3807.57,1647.27 3807.53,1647.46C3807.46,1647.76 3807.61,1647.5 3807.19,1648.52L3805.98,1651.47L3805.42,1652.9L3803.98,1656.23L3797.48,1653.28ZM3803.94,1656.27L3802.36,1659.52L3801.64,1660.91L3800.16,1663.75C3799.67,1664.73 3799.75,1664.43 3799.56,1664.69C3799.45,1664.84 3799.37,1664.88 3799.26,1664.96C3798.95,1665.15 3799.03,1664.54 3798.88,1664.35C3798.58,1664.09 3798.2,1663.98 3797.86,1663.75C3797.18,1663.33 3796.53,1662.88 3795.82,1662.54L3795.29,1662.27C3794.91,1662.61 3794.8,1662.39 3794.61,1662.31L3793.55,1661.82L3791.39,1660.8L3782.85,1656.72C3778.13,1654.45 3776.13,1648.82 3778.36,1644.09C3780.62,1639.37 3786.26,1637.37 3790.98,1639.6L3791.02,1639.63L3791.32,1639.79L3805.27,1646.51L3804.28,1648.63C3805.04,1648.97 3805.91,1649.46 3806.82,1650.22C3807.72,1650.97 3808.63,1652.03 3809.24,1653.24C3809.88,1654.45 3810.18,1655.74 3810.26,1656.79C3810.37,1657.85 3810.33,1658.65 3810.29,1659.29L3803.94,1656.27Z" style="fill-rule:nonzero;"/>
                            <g id="g21">
                                <path id="path17" d="M4619.75,1637.67C4631.4,1583.36 4639.11,1528.78 4643.98,1473.64C4648.86,1418.57 4650.86,1363.2 4650.71,1307.87C4650.37,1197.13 4641.68,1086.46 4628.22,976.441L4625.91,976.743L4628.67,982.299C4575.08,929.613 4515.86,882.52 4451.38,844.157C4386.97,805.72 4317.32,776.164 4244.79,756.964C4240.55,755.83 4237.76,752.013 4237.76,747.817L4237.76,747.78L4244.9,756.964C4185.22,741.241 4124.26,732.397 4062.73,729.676C4001.27,726.954 3939.44,730.62 3878.4,738.746C3817.28,747.024 3756.81,760.101 3697.36,776.768C3637.87,793.436 3579.36,813.619 3521.84,836.372L3527.77,826.998C3530.08,866.759 3532.27,906.557 3533.29,946.394C3534.05,966.312 3534.12,986.23 3534.58,1006.15C3534.58,1026.07 3534.92,1046.02 3534.54,1065.94C3533.86,1145.69 3529.59,1225.44 3521.08,1304.81C3516.74,1344.49 3511.18,1384.06 3504.53,1423.45L3499.16,1452.93C3497.39,1462.75 3495.19,1472.5 3493.27,1482.29C3489.37,1501.87 3484.84,1521.37 3480.04,1540.76C3470.44,1579.54 3459.14,1618.02 3446.29,1655.89C3439.79,1674.82 3432.91,1693.57 3425.54,1712.32C3421.87,1721.5 3418.13,1730.84 3414.16,1740.02C3412.23,1744.63 3410.23,1749.24 3408.19,1753.81L3405.16,1760.69L3402.52,1766.51L3402.18,1767.27L3401.58,1768.48L3402.07,1767.5C3394.17,1784.77 3385.81,1801.93 3377.08,1818.78L3363.63,1843.84C3359.17,1852.23 3354.26,1860.55 3349.49,1868.75C3339.86,1885.08 3329.69,1901.22 3319.14,1917.01C3313.97,1925.03 3308.26,1932.62 3302.82,1940.45C3297.34,1948.23 3291.86,1956.02 3286.03,1963.54C3240.08,2024.32 3186.82,2079.46 3127.56,2127.31C3120.19,2133.32 3112.67,2139.18 3105.11,2144.96L3093.62,2153.57L3082.05,2161.89C3066.67,2173 3050.76,2183.51 3034.77,2193.79C3002.61,2214.12 2969.31,2232.61 2935.18,2249.35C2866.92,2282.91 2795.45,2309.48 2722.47,2330.23L2719.07,2311.71C2757.96,2308.38 2797,2306.57 2836.12,2306.91C2845.91,2306.95 2855.62,2307.33 2865.45,2307.67C2875.24,2307.97 2885.03,2308.38 2894.74,2309.1C2904.57,2309.74 2914.28,2310.65 2924.03,2311.64C2933.78,2312.43 2943.61,2313.75 2953.25,2315.07C2963,2316.32 2972.64,2318.06 2982.27,2319.65C2992.14,2321.42 3001.59,2323.28 3011.22,2325.51C3030.39,2329.74 3049.44,2334.99 3068.18,2341.15C3105.6,2353.51 3142,2370.14 3175.18,2391.87L3176.69,2393.08L3176.84,2393.2L3175.37,2391.99L3184.52,2398.19L3193.51,2404.65C3196.46,2406.88 3199.45,2409.07 3202.36,2411.45C3205.23,2413.68 3208.03,2416.03 3210.86,2418.37C3213.62,2420.6 3216.64,2423.24 3219.36,2425.7L3227.45,2433.11C3230.29,2435.75 3232.89,2438.4 3235.5,2441.01L3243.14,2448.91C3244.84,2450.68 3245.71,2452.95 3245.71,2455.26L3245.71,2455.45L3243.21,2449.02L3252.47,2459.57C3255.57,2463.04 3258.63,2466.86 3261.35,2470.56L3269.74,2481.75C3271.11,2483.64 3272.62,2485.45 3273.86,2487.35L3278.06,2493.54L3277.68,2492.98L3280.03,2496.57L3284.11,2503.07L3286.19,2506.55L3290,2513.12L3293.78,2519.92L3294.43,2521.4C3294.24,2520.72 3293.9,2520.08 3293.52,2519.47L3294.01,2520.26L3298.32,2528.66C3299.72,2531.53 3301.19,2534.4 3302.48,2537.2L3301.45,2535.5C3301.95,2536.18 3302.36,2536.93 3302.74,2537.73L3303.04,2538.41L3303.5,2539.39L3304.37,2541.35L3306.14,2545.28L3309.58,2553.45L3312.87,2561.69C3313.85,2564.3 3314.95,2567.13 3316.04,2570.34L3315.82,2569.66L3317.29,2573.86L3318.54,2577.56L3320.99,2584.97C3322.55,2589.96 3323.98,2595.02 3325.34,2600.16C3326.7,2605.27 3327.99,2610.33 3329.12,2615.43C3330.33,2620.5 3331.35,2625.68 3332.37,2630.85L3332.07,2629.64C3332.52,2631.42 3332.45,2631.31 3332.56,2631.87L3332.79,2633.24L3333.28,2635.92L3334.22,2641.28L3334.07,2640.49C3334.53,2642.8 3334.53,2643.06 3334.68,2644.01L3335.09,2646.54L3335.89,2651.87C3336.42,2655.42 3336.76,2658.97 3337.17,2662.49L3338.38,2673.11L3339.33,2683.77L3327.19,2675.45C3343.6,2670.46 3360.19,2665.47 3377.01,2660.9C3385.32,2658.63 3393.94,2656.37 3402.22,2654.36C3410.53,2652.32 3419.38,2650.32 3427.69,2648.54L3434.04,2647.18L3440.62,2645.86C3444.78,2645.03 3449.08,2644.31 3453.35,2643.59C3461.93,2642.15 3470.48,2640.57 3479.17,2639.36L3485.74,2638.45L3531.25,2633.95C3531.74,2633.91 3532.2,2633.91 3532.69,2633.95L3532.8,2633.95L3539.72,2634.75C3541.95,2634.97 3544.52,2635.43 3546.9,2635.77L3546.18,2635.65C3547.5,2635.84 3548.86,2636.03 3550,2636.26L3553.55,2636.9L3551.66,2636.71C3553.25,2636.75 3554.99,2637.13 3556.42,2637.81L3553.97,2636.98L3559.75,2638.22L3565.23,2639.55L3562.92,2639.28C3564.28,2639.32 3565.68,2639.58 3566.97,2640.08L3565.91,2639.74C3568.86,2640.57 3571.81,2641.4 3574.75,2642.34C3577.44,2643.18 3581.22,2644.42 3583.71,2645.33C3589.53,2647.71 3595.43,2649.94 3601.1,2652.66C3606.58,2655.57 3612.02,2658.26 3617.54,2661.58C3620.14,2663.21 3622.72,2664.76 3625.44,2666.57C3627.89,2668.2 3630.61,2670.05 3633.26,2671.97L3632.66,2671.56C3633.37,2672.05 3634.09,2672.58 3634.77,2673.11L3634.2,2672.66C3639.01,2676.17 3643.09,2679.38 3647.36,2683.05C3651.33,2686.45 3655.52,2690.23 3659.49,2694.05C3663.42,2697.83 3667.09,2701.61 3670.87,2705.65C3674.57,2709.66 3678.09,2713.78 3681.6,2717.93L3678.58,2715.51C3680.35,2716.38 3682.09,2718.12 3682.96,2719.9L3681.79,2718.09C3684.78,2721.79 3687.76,2725.42 3690.75,2729.31L3699.1,2740.91C3701.82,2744.81 3704.73,2748.59 3707.3,2752.59C3709.98,2756.56 3712.48,2760.57 3715.01,2764.57L3713.46,2762.68C3729.03,2777.05 3745.7,2790.35 3764.07,2799.01C3773.22,2803.28 3782.78,2806.22 3792.3,2807.13C3801.83,2808.04 3811.28,2806.79 3820.16,2803.39L3820.31,2803.35C3821.82,2802.78 3823.45,2802.63 3824.96,2802.86C3830.51,2803.73 3836.03,2804.6 3841.51,2805.69C3846.99,2806.72 3852.59,2808.04 3857.99,2809.36L3859.16,2809.74C3858.93,2809.62 3858.67,2809.55 3858.41,2809.47C3858.18,2809.44 3858.63,2809.55 3858.71,2809.55L3859.77,2809.81L3863.92,2810.95L3865.89,2811.51C3868.76,2812.35 3871.48,2813.22 3874.17,2814.16C3876.89,2815.07 3879.57,2816.05 3882.22,2817.07L3886.11,2818.66L3888.19,2819.53L3889.47,2820.09L3890.99,2820.85L3890.04,2820.36C3892.12,2821.3 3894.12,2822.29 3895.97,2823.31L3900.28,2825.58C3900.43,2825.65 3900.85,2825.88 3901.34,2826.18L3902.63,2827.01L3901.76,2826.41C3905.16,2828.41 3908.49,2830.6 3911.7,2833.02C3913.32,2834.19 3914.87,2835.59 3916.35,2836.88C3917.86,2838.27 3919.29,2839.37 3920.84,2840.99C3923.91,2843.98 3926.51,2847.12 3928.93,2850.6L3930.75,2853.28C3931.28,2854.07 3931.81,2855.02 3932.33,2855.96C3933.35,2857.85 3934.34,2859.59 3935.47,2862.24L3935.02,2861.18C3935.7,2862.5 3936.08,2864.13 3936.11,2865.64L3935.24,2861.67C3935.7,2862.69 3936.15,2863.75 3936.49,2864.66C3936.87,2865.64 3937.17,2866.55 3937.47,2867.41L3936.95,2866.17C3937.29,2866.92 3937.59,2867.75 3937.81,2868.55L3937.36,2867.19L3938.38,2870.25L3938.99,2872.67C3939.4,2874.22 3939.74,2875.84 3940.04,2877.54C3940.57,2880.38 3940.95,2883.89 3941.1,2886.99C3941.25,2890.2 3941.18,2893.38 3940.95,2896.55L3940.54,2901.28C3940.35,2902.75 3940.16,2904.23 3939.82,2906.12L3939.93,2905.44L3939.36,2908.61L3938.8,2911.29C3938.42,2913.03 3938,2914.85 3937.51,2916.7C3936.57,2920.29 3935.47,2923.77 3934.26,2927.17C3931.84,2934.01 3928.89,2940.66 3925.83,2946.82L3924.7,2949.16L3923.34,2951.77L3920.84,2956.42L3915.36,2965.45C3911.62,2971.39 3908.26,2977.62 3904.14,2983.29C3900.13,2989 3896.13,2994.67 3891.86,3000.23L3878.97,3016.63C3870.2,3027.25 3861.05,3037.68 3851.75,3047.85C3833.08,3068.18 3813.54,3087.53 3793.55,3106.36C3788.6,3111.12 3783.5,3115.69 3778.36,3120.26L3763.01,3133.98L3732.32,3161.39L3721.44,3146.04C3815.24,3091.69 3901.87,3025.32 3981.13,2951.21C4060.46,2877.05 4132.57,2795.3 4198.83,2709.09C4202,2704.93 4207.94,2704.18 4212.09,2707.35C4213.08,2708.11 4213.87,2709.05 4214.48,2710.03C4259.83,2786.76 4315.62,2857.25 4379.75,2919.16C4443.86,2981.14 4516.08,3034.55 4593.07,3079.75L4590.92,3078.8C4627.05,3089.08 4663.67,3097.74 4700.67,3102.95C4737.64,3108.21 4775.09,3110.36 4811.87,3106.77C4848.57,3103.22 4884.7,3093.62 4916.56,3075.93C4948.38,3058.2 4975.33,3032.43 4995.55,3001.89L4997.93,3014.82C4946.57,2978.19 4898.65,2936.62 4855.48,2890.55C4844.82,2878.9 4833.9,2867.49 4824.04,2855.13C4819.01,2849.05 4814.17,2842.81 4809.07,2836.76C4804.16,2830.6 4799.47,2824.21 4794.67,2817.98C4789.95,2811.67 4784.99,2805.51 4780.46,2799.04L4767.01,2779.54C4757.78,2766.73 4749.77,2753.12 4741.34,2739.78C4708.42,2685.92 4681.06,2628.74 4659.29,2569.59C4637.4,2510.48 4620.7,2449.51 4608.38,2387.83C4583.81,2264.28 4576.55,2138.04 4579.77,2012.64C4581.32,1949.86 4585.85,1887.27 4591.9,1824.83C4592.69,1817.05 4593.37,1809.22 4594.28,1801.44L4597.15,1778.08C4599.12,1762.51 4601.08,1746.97 4603.62,1731.52C4604.86,1723.77 4605.92,1716.02 4607.36,1708.31C4608.79,1700.6 4610.65,1692.96 4612.88,1685.37C4615.03,1677.77 4617.18,1670.21 4619.04,1662.58C4619.87,1658.76 4620.66,1654.9 4621.95,1651.16C4623.08,1647.38 4624.36,1643.64 4625.76,1639.9C4625.76,1639.63 4626.18,1639.45 4626.37,1639.26L4627.09,1638.61L4619.75,1637.67ZM4626.75,1638.99L4627.2,1639.82C4627.31,1640.09 4627.62,1640.39 4627.58,1640.62C4627.81,1644.62 4627.84,1648.59 4627.77,1652.52C4627.84,1656.49 4627.43,1660.38 4627.01,1664.28C4626.44,1672.1 4626.14,1679.92 4625.88,1687.79C4625.57,1695.61 4625.31,1703.47 4624.59,1711.22C4623.84,1718.97 4622.74,1726.68 4621.83,1734.42C4619.83,1749.88 4618.13,1765.34 4616.39,1780.84C4614.58,1796.3 4612.69,1811.75 4611.18,1827.25C4604.33,1889.16 4599.69,1951.29 4598.17,2013.51C4594.92,2137.85 4602.07,2262.76 4626.22,2384.58C4638.31,2445.43 4654.72,2505.45 4676.18,2563.58C4697.57,2621.74 4724.41,2677.87 4756.61,2730.67C4764.85,2743.75 4772.71,2757.13 4781.74,2769.68L4794.9,2788.8C4799.36,2795.11 4804.19,2801.16 4808.81,2807.36C4813.53,2813.48 4818.1,2819.72 4822.9,2825.76C4827.86,2831.7 4833.03,2837.48 4838.02,2843.34C4843.09,2849.16 4847.77,2855.36 4853.14,2860.91L4868.86,2877.96C4911.12,2923.12 4958.1,2963.83 5008.52,2999.77C5012.67,3002.72 5013.69,3008.47 5010.9,3012.7C4989.24,3045.39 4959.91,3073.55 4925.37,3092.75C4890.75,3111.95 4852.01,3122.15 4813.34,3125.9C4774.56,3129.68 4735.71,3127.37 4697.61,3121.97C4659.48,3116.56 4622.1,3107.72 4585.28,3097.25C4584.53,3097.02 4583.81,3096.72 4583.17,3096.34L4583.13,3096.3C4505.01,3050.42 4431.5,2996.14 4366.22,2932.99C4300.91,2869.95 4244.03,2798.06 4197.81,2719.9L4213.45,2720.84C4146.67,2807.74 4073.88,2890.28 3993.68,2965.27C3913.51,3040.21 3825.75,3107.49 3730.55,3162.67C3726.05,3165.28 3720.26,3163.73 3717.62,3159.23C3715.35,3155.3 3716.22,3150.39 3719.51,3147.44L3719.66,3147.33L3765.24,3106.62C3770.31,3102.12 3775.41,3097.59 3780.25,3092.86C3800.01,3074.27 3819.25,3055.22 3837.51,3035.3C3846.65,3025.36 3855.5,3015.23 3864.11,3004.8L3876.51,2989C3880.59,2983.75 3884.45,2978.27 3888.3,2972.83C3892.23,2967.42 3895.33,2961.6 3898.85,2956.01L3904.03,2947.54L3906.37,2943.16L3907.39,2941.23L3908.49,2938.96C3911.47,2932.91 3914.08,2927.05 3916.2,2921.05C3917.25,2918.06 3918.24,2915 3919.03,2912.01C3919.41,2910.54 3919.79,2909.06 3920.13,2907.44L3920.62,2905.13L3920.96,2903.28L3921.07,2902.72L3921.07,2902.64L3921.56,2899.12L3921.9,2895.42C3922.09,2892.96 3922.17,2890.47 3922.05,2888.05C3921.94,2885.56 3921.71,2883.4 3921.22,2880.72C3921.03,2879.62 3920.81,2878.49 3920.47,2877.32L3920.05,2875.65C3919.94,2875.35 3919.86,2875.01 3919.79,2874.71L3919.48,2873.31C3919.48,2873.27 3919.45,2873.24 3919.37,2873.24C3919.29,2873.24 3919.29,2873.27 3919.29,2873.35C3919.41,2873.84 3919.6,2874.37 3919.86,2874.82L3919.33,2873.58C3919.07,2872.82 3918.84,2872.14 3918.58,2871.5C3918.31,2870.82 3918.09,2870.32 3917.86,2869.76L3916.99,2865.79C3916.95,2867.11 3917.25,2868.55 3917.86,2869.72C3917.86,2869.76 3917.9,2869.76 3917.93,2869.76C3917.97,2869.76 3917.97,2869.72 3917.97,2869.68L3917.44,2868.7L3915.63,2865.34C3915.29,2864.73 3914.91,2864.09 3914.46,2863.37L3913.21,2861.56C3911.51,2859.1 3909.47,2856.64 3907.31,2854.56C3906.37,2853.54 3904.97,2852.45 3903.8,2851.39C3902.55,2850.29 3901.45,2849.24 3900.13,2848.29C3897.56,2846.36 3894.84,2844.55 3892.01,2842.89L3891.14,2842.28L3891.14,2842.32C3891.18,2842.36 3891.18,2842.32 3890.87,2842.17L3889.62,2841.52L3887.13,2840.2C3885.47,2839.26 3883.84,2838.5 3882.22,2837.74L3881.27,2837.25C3881.16,2837.22 3881.05,2837.18 3880.93,2837.14L3880.37,2836.91L3878.7,2836.2L3875.11,2834.72C3872.73,2833.78 3870.35,2832.91 3867.93,2832.11C3865.51,2831.28 3863.13,2830.49 3860.79,2829.81L3851.91,2827.28L3853.08,2827.65C3847.9,2826.41 3842.87,2825.24 3837.66,2824.25C3832.48,2823.23 3827.22,2822.4 3822.01,2821.61L3826.77,2821.04C3815.24,2825.54 3802.47,2827.2 3790.26,2825.99C3778.02,2824.86 3766.41,2821.15 3755.79,2816.2C3745.17,2811.21 3735.38,2805.01 3726.24,2798.29C3717.09,2791.52 3708.47,2784.19 3700.27,2776.55C3699.7,2776.03 3699.21,2775.42 3698.8,2774.78L3698.72,2774.66C3696.26,2770.77 3693.85,2766.88 3691.31,2763.14C3688.86,2759.32 3686.06,2755.69 3683.45,2751.95L3675.48,2740.84C3672.79,2737.32 3669.85,2733.73 3667.01,2730.22L3665.84,2728.4C3666.6,2730.07 3668.26,2731.73 3669.92,2732.49L3666.86,2730.07C3663.53,2726.21 3660.25,2722.32 3656.81,2718.58C3653.41,2714.91 3649.74,2711.17 3646.07,2707.62C3642.44,2704.14 3638.85,2700.89 3634.81,2697.41C3631.11,2694.2 3626.91,2690.91 3623.21,2688.23L3622.64,2687.77C3622.53,2687.7 3622.41,2687.62 3622.34,2687.51L3621.73,2687.09C3619.58,2685.51 3617.35,2683.99 3614.85,2682.33C3612.62,2680.82 3610.09,2679.31 3607.64,2677.8C3602.95,2674.96 3597.73,2672.35 3592.67,2669.67C3587.6,2667.21 3582.31,2665.25 3577.13,2663.09C3574,2661.96 3572.14,2661.35 3569.16,2660.41C3566.4,2659.5 3563.64,2658.75 3560.84,2657.95L3559.79,2657.61C3560.69,2658.03 3561.79,2658.22 3562.77,2658.18L3560.47,2657.91L3555.21,2656.67L3550.22,2655.57L3547.77,2654.74C3548.86,2655.35 3550.22,2655.68 3551.47,2655.61L3549.58,2655.42L3546.63,2654.89C3545.58,2654.7 3544.74,2654.59 3543.91,2654.44L3543.76,2654.4C3543.61,2654.36 3543.35,2654.32 3543.19,2654.32C3541.19,2654.06 3539.38,2653.72 3537.22,2653.49L3530.91,2652.74L3532.42,2652.78L3507.02,2655.31L3494.32,2656.55L3487.97,2657.2L3481.74,2658.03C3473.35,2659.16 3464.96,2660.75 3456.57,2662.15C3452.37,2662.87 3448.18,2663.55 3443.91,2664.42L3437.82,2665.62L3431.51,2666.95C3423.01,2668.76 3415.07,2670.58 3406.64,2672.62C3398.21,2674.7 3390.16,2676.81 3381.85,2679.08C3365.41,2683.5 3349.04,2688.45 3332.49,2693.48C3327.5,2694.99 3322.24,2692.2 3320.73,2687.21C3320.54,2686.6 3320.43,2685.96 3320.35,2685.32L3320.35,2685.13L3319.45,2674.85L3318.27,2664.61C3317.86,2661.2 3317.56,2657.76 3317.03,2654.36L3315.63,2644.95L3315.48,2644.16L3314.65,2639.62L3314.23,2637.24L3314.04,2636.03C3314,2635.73 3313.78,2634.82 3314.08,2635.73L3313.78,2634.52C3312.83,2629.61 3311.85,2624.69 3310.68,2619.78C3309.58,2614.87 3308.33,2609.95 3307.05,2605.12C3305.76,2600.32 3304.4,2595.51 3302.89,2590.68L3300.51,2583.46L3298.24,2576.77L3298.02,2576.09C3297.22,2573.86 3296.28,2571.29 3295.22,2568.49L3292.12,2560.67L3288.83,2552.92L3287.06,2548.95L3285.69,2546C3285.66,2545.93 3285.47,2545.51 3285.54,2545.7C3285.73,2546.15 3286,2546.57 3286.34,2546.95L3285.32,2545.25C3284.07,2542.49 3282.75,2539.88 3281.46,2537.27L3277.38,2529.3L3277.87,2530.09C3277.34,2529.3 3276.89,2528.39 3276.59,2527.48L3277.23,2528.96L3273.68,2522.53L3269.9,2516.03L3268.08,2513.01L3264.15,2506.66L3262.38,2503.94L3262,2503.37L3258.52,2498.27C3257.27,2496.34 3255.87,2494.68 3254.55,2492.86L3246.54,2482.2C3243.86,2478.58 3241.21,2475.25 3238.26,2471.92L3229.49,2461.95L3229.34,2461.76C3227.75,2459.98 3227,2457.75 3227,2455.52L3227,2455.48L3229.57,2461.95L3222.16,2454.27C3219.67,2451.78 3217.21,2449.32 3214.75,2447.02L3206.89,2439.8C3204.28,2437.42 3201.86,2435.3 3199.03,2432.99C3196.31,2430.73 3193.59,2428.46 3190.75,2426.27C3188.07,2424.08 3185.24,2422 3182.44,2419.88L3173.86,2413.72L3165.09,2407.79L3163.62,2406.58L3163.54,2406.54L3165.05,2407.75C3133.34,2387 3098.61,2371.12 3062.44,2359.14C3044.33,2353.17 3025.97,2348.11 3007.29,2343.99C2998.03,2341.83 2988.51,2339.94 2979.25,2338.28C2969.76,2336.73 2960.32,2335.03 2950.83,2333.82C2941.27,2332.5 2931.89,2331.25 2922.33,2330.46C2912.81,2329.55 2903.21,2328.61 2893.68,2328C2884.08,2327.32 2874.52,2326.9 2864.92,2326.6C2855.36,2326.26 2845.72,2325.88 2836.12,2325.85C2797.72,2325.51 2759.21,2327.28 2720.84,2330.61C2715.63,2331.06 2711.05,2327.21 2710.6,2321.99C2710.22,2317.42 2713.17,2313.3 2717.44,2312.09C2789.48,2291.64 2859.89,2265.41 2926.98,2232.42C2960.5,2215.94 2993.24,2197.76 3024.79,2177.84C3040.52,2167.75 3056.05,2157.47 3071.24,2146.51L3082.66,2138.3L3093.81,2129.95C3101.22,2124.28 3108.59,2118.54 3115.81,2112.64C3173.86,2065.78 3226.13,2011.62 3271.11,1952.13C3276.81,1944.76 3282.22,1937.12 3287.55,1929.49C3292.88,1921.81 3298.51,1914.37 3303.57,1906.55C3313.93,1891.01 3323.87,1875.21 3333.39,1859.07C3338.12,1850.95 3342.76,1843.09 3347.15,1834.81L3360.45,1810.05C3369.07,1793.46 3377.2,1776.72 3384.98,1759.71L3385.47,1758.73C3385.32,1758.84 3385.02,1759.52 3385.28,1758.99L3385.66,1758.12L3386.46,1756.38L3388.01,1752.91L3390.99,1746.14C3392.99,1741.64 3394.96,1737.15 3396.85,1732.57C3400.78,1723.5 3404.37,1714.39 3408.11,1705.13C3415.29,1686.92 3422.1,1668.32 3428.49,1649.69C3441.18,1612.31 3452.3,1574.44 3461.78,1536.08C3466.51,1516.91 3470.97,1497.68 3474.82,1478.29C3476.75,1468.61 3478.9,1458.93 3480.68,1449.22L3485.97,1420.04C3492.55,1381.08 3498.07,1341.92 3502.38,1302.58C3510.8,1223.92 3515.04,1144.78 3515.72,1065.56C3516.09,1045.76 3515.75,1025.95 3515.75,1006.15C3515.34,986.343 3515.22,966.539 3514.51,946.734C3513.49,907.124 3511.33,867.553 3509.03,827.981L3509.03,827.905C3508.8,823.748 3511.29,820.044 3514.96,818.57C3573.01,795.591 3632.16,775.181 3692.37,758.324C3752.58,741.468 3813.88,728.202 3875.98,719.773C3938.12,711.534 4000.86,707.83 4063.64,710.551C4126.3,713.31 4189,722.457 4249.55,738.406L4249.66,738.444C4253.9,739.578 4256.69,743.395 4256.69,747.591L4256.69,747.628L4249.66,738.482C4323.86,758.098 4395.21,788.409 4461.09,827.717C4527.04,866.948 4587.4,915.024 4641.98,968.655L4642.02,968.693C4643.57,970.242 4644.47,972.208 4644.74,974.211L4642.43,974.513C4655.92,1084.99 4664.69,1196.18 4665.03,1307.64C4665.18,1363.35 4663.18,1419.14 4658.27,1474.7C4653.35,1530.18 4645.49,1585.81 4633.85,1640.13L4626.75,1638.99Z" style="fill-rule:nonzero;"/>
                                <path id="path19" d="M4437.16,1568.58C4429.95,1574.97 4422.8,1581.32 4415.36,1587.4C4411.65,1590.46 4408.03,1593.56 4404.17,1596.55L4398.46,1601.08C4396.46,1602.67 4394.95,1603.81 4392.91,1605.39C4385.2,1611.33 4377.3,1616.58 4369.51,1622.21C4361.69,1627.73 4353.94,1633.4 4345.7,1638.46C4337.65,1643.64 4329.3,1648.63 4321.02,1653.39C4312.7,1658.23 4304.13,1662.58 4295.66,1667.15L4289.2,1670.4L4286.02,1671.95L4282.73,1673.54C4278.39,1675.65 4273.93,1677.69 4269.51,1679.74C4260.77,1683.67 4252.04,1687.41 4243.05,1690.92C4244.75,1695.23 4243.5,1692.13 4243.88,1693.08L4243.81,1693.08L4243.73,1693.12L4243.54,1693.19L4243.2,1693.34L4242.52,1693.61L4238.32,1695.19L4232.69,1697.31L4221.39,1701.35C4213.8,1704 4206.27,1706.38 4198.53,1708.72C4183.18,1713.3 4167.72,1717.3 4151.96,1720.67L4153.1,1720.37C4153.4,1720.25 4153.74,1720.1 4154.04,1719.91L4151.85,1720.7L4144.21,1722.26L4144.97,1722.07C4142.7,1722.56 4141.76,1722.71 4140.47,1722.97L4136.77,1723.69C4134.27,1724.14 4131.82,1724.64 4129.28,1725.05C4124.26,1725.88 4119.23,1726.72 4114.17,1727.47C4104.07,1728.94 4094.06,1730.15 4083.86,1731.14C4078.75,1731.7 4073.69,1731.97 4068.62,1732.35C4063.56,1732.72 4058.46,1733.14 4053.39,1733.29L4022.89,1734.09C4022.29,1734.09 4021.72,1734.05 4021.15,1733.93L4020.96,1733.9C4008.61,1731.33 3996.17,1728.61 3983.96,1725.77C3971.49,1722.86 3959.36,1719.87 3947.07,1716.59C3922.7,1710.01 3898.28,1702.9 3874.36,1694.44C3850.43,1686.27 3826.7,1676.98 3803.53,1666.43C3797.71,1663.82 3792.08,1660.99 3786.33,1658.31C3783.5,1656.98 3780.59,1655.51 3777.68,1654.04L3769.25,1649.69L3752.5,1640.35L3744.15,1635.67C3742.75,1634.91 3741.47,1634.08 3740.11,1633.25L3738.1,1632.04L3737.12,1631.43C3736.52,1631.06 3735.84,1630.64 3735.23,1630.22L3736.06,1630.79C3730.58,1627.5 3725.9,1624.25 3720.79,1620.96C3715.77,1617.75 3710.82,1614.24 3705.94,1610.76C3696.19,1603.77 3686.7,1596.25 3677.52,1588.5L3683.6,1590.73C3681.37,1590.8 3678.43,1589.59 3676.91,1587.93L3677.41,1588.38C3673.55,1584.98 3669.66,1581.58 3665.8,1578.03C3662.02,1574.44 3658.43,1570.73 3654.73,1567.11C3651.1,1563.4 3647.32,1559.89 3643.81,1555.99C3642.03,1554.07 3640.29,1552.1 3638.59,1550.17C3637.76,1549.19 3636.85,1548.21 3636.06,1547.26C3635.22,1546.28 3634.58,1545.6 3633.07,1543.63L3633.83,1544.54L3630.46,1540.5L3627.55,1536.83C3626.57,1535.58 3625.62,1534.45 3624.64,1533.09L3621.69,1529.16L3622.34,1529.99C3621.81,1529.35 3621.05,1528.29 3620.75,1527.91L3619.84,1526.66L3618.07,1524.21C3616.86,1522.58 3615.68,1520.92 3614.48,1519.14C3612.06,1515.67 3609.75,1512.15 3607.52,1508.6C3605.29,1505.05 3603.06,1501.38 3600.98,1497.75L3597.85,1492.16L3594.93,1486.75C3592.48,1482.18 3594.18,1476.47 3598.75,1474.02C3599.32,1473.71 3599.92,1473.45 3600.57,1473.26L3600.68,1473.22C3618.33,1468.12 3635.91,1462.75 3653.29,1456.97C3661.98,1454.1 3670.64,1451.07 3679.26,1447.98L3692.22,1443.21C3696.42,1441.7 3700.72,1439.96 3704.96,1438.34L3701.71,1453.83C3696.04,1447.18 3691.58,1441.36 3687.38,1434.82C3685.27,1431.61 3683.22,1428.36 3681.37,1425C3679.41,1421.71 3677.67,1418.31 3675.97,1414.9C3669.13,1401.26 3663.76,1387.01 3659.6,1372.5C3651.29,1343.43 3647.77,1313.31 3648.04,1283.3C3648.42,1253.29 3652.69,1223.21 3661.87,1194.37C3671.06,1165.64 3684.96,1137.68 3706.77,1115.11C3712.25,1109.56 3718.22,1104.34 3724.72,1099.77C3731.3,1095.27 3738.41,1091.38 3746,1088.47C3753.6,1085.56 3761.65,1083.63 3769.85,1082.91C3778.05,1082.27 3786.33,1082.87 3794.34,1084.57C3810.48,1087.94 3824.96,1096.14 3837.05,1106.19C3849.15,1116.4 3859.05,1128.57 3867.29,1141.49C3883.62,1167.5 3893.82,1196.52 3899.57,1226.08C3902.47,1240.86 3904.25,1255.82 3904.97,1270.83C3905.16,1274.57 3905.31,1278.31 3905.31,1282.09L3905.39,1287.72L3905.35,1293.09C3905.39,1300.54 3905.01,1308.06 3904.86,1315.54C3904.82,1317.2 3904.29,1318.75 3903.46,1320.04L3903.42,1320.11L3902.25,1321.85L3904.03,1317.13L3900.85,1341.24L3887.24,1331.19C3906.9,1321.17 3928.25,1314.41 3950.1,1311.35C3961.02,1309.8 3972.02,1309.12 3983.02,1309.23C3994.05,1309.34 4004.75,1310.25 4015.82,1311.76L4014.35,1311.65C4015.03,1311.68 4015.75,1311.72 4016.43,1311.84L4017.11,1311.95L4018.43,1312.18L4026.26,1313.54C4029.77,1314.07 4033.1,1314.9 4036.57,1315.58C4043.45,1317.09 4050.29,1318.83 4057.06,1320.76C4070.55,1324.65 4083.78,1329.3 4096.74,1334.51C4122.67,1344.94 4147.46,1357.61 4171.46,1371.44L4157.56,1381.76C4150.22,1350.24 4148.64,1317.62 4152.34,1285.57C4156.16,1253.56 4165.38,1221.88 4181.4,1193.39C4189.34,1179.14 4199.09,1165.76 4210.7,1153.93C4216.44,1147.96 4222.79,1142.55 4229.56,1137.64C4236.28,1132.69 4243.54,1128.34 4251.21,1124.83C4258.89,1121.31 4266.94,1118.44 4275.25,1116.62C4283.57,1114.85 4292.18,1114.02 4300.57,1114.09L4303.67,1114.17C4304.81,1114.2 4305.9,1114.28 4306.96,1114.36C4309.15,1114.51 4311.19,1114.7 4313.31,1115.04C4317.51,1115.83 4321.74,1116.51 4325.93,1117.42C4329.98,1118.63 4334.29,1119.65 4337.99,1121.27L4343.73,1123.5C4346.27,1124.49 4347.86,1125.43 4349.78,1126.3L4348.76,1125.85C4349.82,1126.3 4350.84,1126.83 4351.82,1127.47L4350.46,1126.68C4353.11,1128.04 4355.75,1129.44 4358.36,1131.02L4357.76,1130.68L4359.42,1131.67L4360.4,1132.27C4360.97,1132.61 4361.5,1132.99 4362.03,1133.4L4360.7,1132.5L4364.41,1134.92L4358.89,1133.14C4361.16,1133.07 4364.07,1134.31 4365.62,1135.94L4364.3,1134.84L4367.7,1137.26L4366.94,1136.77C4367.85,1137.37 4368.72,1138.02 4369.55,1138.7L4368.68,1138.02C4370.84,1139.6 4372.91,1141.19 4374.92,1142.82C4376.96,1144.44 4378.81,1146.18 4380.78,1147.88L4379.6,1146.97C4380.13,1147.31 4380.81,1147.88 4381.11,1148.18L4381.38,1148.45L4383.08,1150.04L4385.35,1152.19L4389.77,1156.76C4392.61,1159.9 4395.48,1163.07 4398.12,1166.36C4400.73,1169.69 4403.38,1172.98 4405.72,1176.49C4408.21,1179.89 4410.44,1183.48 4412.64,1187.04C4416.94,1194.22 4421.1,1201.55 4424.24,1209.3C4427.41,1217.01 4430.78,1224.64 4433.31,1232.58C4443.93,1264.14 4448.2,1297.55 4446.88,1330.62C4446.27,1347.17 4443.97,1363.69 4440.34,1379.87C4436.67,1396.08 4431.5,1411.96 4424.65,1427.23C4410.86,1457.5 4390.11,1485.81 4360.93,1504.55L4360.93,1488.68L4404.96,1516.61C4412.26,1521.34 4419.48,1526.21 4426.51,1531.35C4430.02,1533.92 4433.46,1536.57 4436.94,1539.21C4440.42,1541.82 4443.02,1545.71 4445.67,1549.45L4447.82,1552.48C4449.07,1554.22 4448.65,1556.64 4446.92,1557.88C4446.73,1558.04 4446.5,1558.15 4446.27,1558.26C4444.19,1559.21 4442.08,1560.11 4440.26,1561.4C4439.36,1562.04 4438.19,1562.34 4437.09,1562.76C4435.96,1563.14 4434.78,1563.44 4433.54,1563.7C4433.5,1563.78 4433.23,1563.63 4433.05,1563.55L4432.44,1563.25L4437.16,1568.58ZM4432.4,1563.29L4432.18,1562.65C4432.1,1562.42 4431.99,1562.15 4432.06,1562.12C4432.4,1560.91 4432.82,1559.74 4433.31,1558.68C4433.8,1557.62 4434.22,1556.49 4434.94,1555.65C4436.33,1553.99 4437.43,1551.99 4438.53,1550.02L4439.13,1558.83C4434.71,1557.62 4430.21,1556.52 4426.58,1554.22L4415.62,1547.38C4408.33,1542.77 4401.18,1537.97 4394.04,1533.13C4379.87,1523.34 4365.47,1513.85 4350.88,1504.63C4346.49,1501.87 4345.17,1496.09 4347.93,1491.7C4348.69,1490.49 4349.67,1489.55 4350.8,1488.83L4350.88,1488.79C4375.98,1472.81 4394.99,1447.45 4407.69,1419.67C4420.27,1391.7 4427.11,1360.89 4428.44,1330.02C4429.76,1299.06 4425.75,1267.81 4416,1238.59C4414.87,1234.92 4413.43,1231.33 4412.07,1227.74C4410.75,1224.11 4409.16,1220.64 4407.46,1217.2C4405.57,1213.83 4403.94,1210.39 4402.2,1206.99C4400.28,1203.7 4398.61,1200.27 4396.53,1197.05C4394.53,1193.8 4392.53,1190.59 4390.3,1187.49C4388.18,1184.32 4385.8,1181.37 4383.5,1178.38C4381.15,1175.43 4378.62,1172.64 4376.09,1169.84L4372.16,1165.76L4370.08,1163.75L4368.49,1162.28L4368.23,1162.02C4368.38,1162.17 4368.83,1162.55 4369.17,1162.73L4368,1161.83C4366.3,1160.39 4364.67,1158.84 4362.97,1157.48C4361.23,1156.08 4359.53,1154.76 4357.83,1153.47L4356.96,1152.79C4357.04,1152.91 4357.15,1153.02 4357.3,1153.06L4356.55,1152.57L4353.75,1150.6L4352.43,1149.51C4353.9,1151.09 4356.77,1152.27 4358.93,1152.15L4353.41,1150.38L4351.29,1149.01L4349.97,1148.11C4350.05,1148.22 4350.16,1148.33 4350.27,1148.41C4350.39,1148.49 4350.01,1148.26 4349.93,1148.18L4348.95,1147.58L4348.35,1147.24C4346.42,1146.07 4344.34,1144.97 4342.26,1143.87L4340.9,1143.08C4341.28,1143.42 4341.73,1143.65 4342.22,1143.8L4341.2,1143.35C4339.62,1142.59 4337.8,1141.61 4336.67,1141.23L4331.53,1139.23C4328.09,1137.71 4324.72,1137.03 4321.32,1135.94C4317.88,1135.22 4314.41,1134.65 4310.97,1133.97C4309.27,1133.67 4307.38,1133.48 4305.68,1133.37L4303.14,1133.22L4300.42,1133.14C4293.24,1133.1 4286.25,1133.78 4279.33,1135.26C4272.42,1136.77 4265.69,1139.15 4259.19,1142.13C4233.15,1154.27 4212.36,1176.98 4197.92,1202.8C4183.33,1228.72 4174.72,1258.09 4171.16,1287.91C4167.69,1317.77 4169.2,1348.38 4176,1377.6C4177.17,1382.66 4174.03,1387.77 4168.93,1388.94C4166.51,1389.51 4164.06,1389.09 4162.05,1387.92C4138.66,1374.42 4114.58,1362.14 4089.71,1352.13C4077.28,1347.14 4064.66,1342.71 4051.88,1339.01C4045.49,1337.16 4039.07,1335.53 4032.57,1334.13C4029.35,1333.49 4026.03,1332.7 4022.78,1332.21L4017.9,1331.38L4015.45,1330.96L4013.63,1330.62C4013.9,1330.66 4014.16,1330.7 4014.43,1330.66L4012.95,1330.55C4003.16,1329.22 3992.88,1328.32 3982.87,1328.24C3972.81,1328.13 3962.76,1328.73 3952.82,1330.17C3932.98,1332.96 3913.7,1339.05 3895.86,1348.16C3891.21,1350.54 3885.54,1348.69 3883.16,1344.04C3882.26,1342.26 3881.99,1340.33 3882.22,1338.52L3882.26,1338.1L3885.2,1315.58C3885.43,1313.88 3886.03,1312.33 3886.9,1310.97L3886.98,1310.85L3887.47,1310.1L3886,1314.63C3886.11,1307.53 3886.49,1300.5 3886.45,1293.35L3886.49,1287.8L3886.41,1282.51C3886.41,1278.95 3886.26,1275.44 3886.07,1271.89C3885.39,1257.75 3883.73,1243.65 3881.01,1229.82C3875.64,1202.15 3866.08,1175.21 3851.3,1151.77C3847.56,1145.99 3843.55,1140.4 3839.17,1135.18C3834.71,1130.04 3830.02,1125.13 3824.88,1120.86C3814.6,1112.35 3802.89,1105.81 3790.34,1103.24C3784.1,1101.92 3777.71,1101.43 3771.33,1101.92C3764.98,1102.49 3758.7,1103.96 3752.69,1106.27C3746.68,1108.57 3740.9,1111.71 3735.42,1115.45C3729.98,1119.27 3724.91,1123.69 3720.19,1128.49C3701.29,1148.03 3688.29,1173.62 3679.79,1200.3C3671.24,1227.1 3667.2,1255.41 3666.86,1283.72C3666.6,1312.03 3669.96,1340.41 3677.71,1367.51C3681.6,1381.04 3686.55,1394.19 3692.79,1406.66C3694.34,1409.76 3695.92,1412.86 3697.7,1415.85C3699.36,1418.91 3701.22,1421.82 3703.11,1424.69C3706.73,1430.48 3711.31,1436.14 3714.97,1440.68L3715.65,1441.51C3718.9,1445.52 3718.3,1451.41 3714.29,1454.66C3713.5,1455.31 3712.63,1455.8 3711.72,1456.14C3707.34,1457.8 3703.07,1459.54 3698.57,1461.16L3685.53,1465.96C3676.76,1469.14 3667.96,1472.16 3659.11,1475.11C3641.42,1480.97 3623.62,1486.41 3605.78,1491.59L3611.53,1478.1L3614.4,1483.46L3617.24,1488.57C3619.24,1492.01 3621.24,1495.33 3623.36,1498.7C3625.47,1502.06 3627.67,1505.39 3629.9,1508.64C3630.99,1510.26 3632.13,1511.89 3633.37,1513.59L3636.09,1517.33C3636.4,1517.75 3636.25,1517.56 3636.32,1517.71L3636.96,1518.54L3639.57,1521.98C3640.4,1523.11 3641.42,1524.32 3642.37,1525.53L3645.2,1529.08L3647.74,1532.14L3648.49,1533.05L3652.8,1538.04L3657.71,1543.52C3660.96,1547.15 3664.63,1550.51 3668.07,1554.03C3671.58,1557.51 3675.02,1561.06 3678.58,1564.42C3682.17,1567.71 3685.91,1571 3689.65,1574.29L3690.14,1574.74C3688.67,1573.12 3685.8,1571.94 3683.6,1572.02L3689.69,1574.25C3698.53,1581.69 3707.57,1588.84 3716.94,1595.57C3721.66,1598.93 3726.31,1602.26 3731.22,1605.39C3736.03,1608.45 3741.05,1611.89 3745.7,1614.69L3746.53,1615.26C3746.57,1615.26 3746.57,1615.22 3746.65,1615.29L3747.67,1615.9L3749.71,1617.15C3751.07,1617.94 3752.43,1618.85 3753.75,1619.57L3761.8,1624.06L3777.94,1633.1L3786.26,1637.37C3788.94,1638.73 3791.62,1640.09 3794.49,1641.41C3800.13,1644.06 3805.72,1646.85 3811.35,1649.39C3833.91,1659.63 3856.97,1668.7 3880.55,1676.75C3903.99,1685.03 3927.84,1691.94 3951.91,1698.48C3963.89,1701.69 3976.14,1704.68 3988.12,1707.48C4000.4,1710.31 4012.46,1713 4024.67,1715.53L4022.74,1715.34L4052.41,1714.58C4057.36,1714.43 4062.27,1714.02 4067.19,1713.64C4072.1,1713.26 4077.05,1713 4081.93,1712.47C4091.68,1711.52 4101.62,1710.31 4111.37,1708.91C4116.25,1708.19 4121.12,1707.4 4125.96,1706.61C4128.38,1706.23 4130.84,1705.74 4133.29,1705.29L4139.87,1704.08L4140.62,1703.89L4147.65,1702.49L4145.46,1703.28C4145.95,1703.06 4146.48,1702.87 4147.01,1702.68L4147.05,1702.68C4147.39,1702.56 4147.77,1702.49 4148.11,1702.38C4163.11,1699.16 4178.15,1695.27 4193.01,1690.85C4200.34,1688.62 4207.82,1686.24 4215.08,1683.7L4226,1679.77L4231.45,1677.73L4236.21,1675.88L4236.55,1675.73L4236.77,1675.62L4236.85,1675.62C4237.23,1676.56 4236.02,1673.46 4237.72,1677.77C4246.41,1674.37 4255.14,1670.63 4263.76,1666.77C4267.96,1664.84 4272.15,1662.92 4276.35,1660.88L4279.48,1659.36L4282.7,1657.78L4288.97,1654.6C4297.25,1650.14 4305.64,1645.91 4313.73,1641.18C4321.89,1636.46 4329.9,1631.7 4337.84,1626.6C4345.78,1621.72 4353.37,1616.16 4361.08,1610.72C4368.72,1605.24 4376.65,1599.95 4383.99,1594.28C4385.69,1592.96 4387.99,1591.26 4389.69,1589.86L4395.14,1585.51C4398.8,1582.68 4402.39,1579.62 4406.02,1576.63C4413.32,1570.7 4420.38,1564.38 4427.41,1558.19L4432.4,1563.29Z" style="fill-rule:nonzero;"/>
                            </g>
                        </g>
                    </g>
                    <path id="path27" d="M4354.09,1504.59C4349.37,1501.64 4344.68,1498.62 4339.92,1495.67C4337.57,1494.16 4335.16,1492.72 4332.77,1491.25C4330.39,1489.74 4327.98,1488.27 4325.59,1486.79C4320.34,1483.54 4315.05,1480.25 4309.72,1477.04C4302.31,1472.47 4294.83,1467.97 4287.35,1463.43C4270.87,1453.49 4254.2,1443.59 4237.38,1433.69C4213.91,1417.21 4191.08,1402.47 4168.82,1389.62C4164.36,1370.57 4161.98,1350.24 4161.98,1329.07C4161.98,1222.15 4223.55,1135.45 4299.52,1135.45C4300.95,1135.45 4302.35,1135.48 4303.79,1135.56C4304.35,1135.56 4304.88,1135.6 4305.41,1135.63C4306.51,1135.67 4307.53,1135.79 4308.62,1135.86C4309.64,1135.98 4310.63,1136.09 4311.65,1136.2C4315.65,1136.69 4319.58,1137.41 4323.44,1138.39C4305.83,1019.26 4280.81,893.934 4248.45,762.52L4248.45,762.482C4248.15,762.406 4247.81,762.331 4247.51,762.255C4140.47,735.42 4029.96,728.731 3916.23,740.107C3912.91,740.409 3909.62,740.75 3906.29,741.165C3783.61,754.507 3657.22,788.863 3527.58,841.663C3555.59,1098.1 3548.3,1314.9 3510.65,1497.79C3486.76,1614.12 3450.6,1716.74 3403.39,1807.11C3403.39,1807.18 3403.35,1807.22 3403.31,1807.22C3328.93,1949.67 3227.22,2061.73 3103.14,2149.27C3102.92,2149.45 3102.65,2149.64 3102.39,2149.83C2996.22,2224.63 2873.69,2281.44 2737.89,2323.99C3009.75,2289.87 3190.6,2337.34 3278.74,2467.84L3278.74,2467.88C3299.26,2498.15 3314.68,2532.93 3325.12,2572.16C3334.22,2606.25 3339.55,2643.74 3341.03,2684.67L3486.84,2660.75L3565.57,2647.82C3607.11,2636.86 3646.87,2624.47 3684.96,2610.67L3685,2610.67C4094.78,2462.06 4307.53,2149.34 4347.36,1692.32L4347.36,1692.28C4348.8,1675.5 4350.01,1658.61 4351.03,1641.41C4351.18,1639.07 4351.29,1636.76 4351.45,1634.38L4351.45,1634.34C4352.39,1616.77 4353.11,1598.89 4353.52,1580.9C4354.2,1555.84 4354.39,1530.41 4354.09,1504.59ZM3900.93,1301.59C3900.06,1249.44 3887.43,1202.08 3867.18,1166.44C3855.65,1159.94 3842.8,1156.35 3829.19,1156.35C3780.06,1156.35 3740.22,1203.67 3740.22,1262.13C3740.22,1320.53 3780.06,1367.89 3829.19,1367.89C3857.88,1367.89 3883.39,1351.79 3899.64,1326.8C3898.92,1334.7 3897.94,1342.45 3896.62,1349.93C3877.87,1359.5 3859.84,1372.5 3842.49,1389.16C3806.29,1415.74 3764.3,1437.16 3718.6,1455.42C3718.6,1455.42 3718.56,1455.46 3718.53,1455.42C3717.43,1455.8 3716.37,1456.14 3715.24,1456.48C3684.89,1421.44 3665.05,1363.5 3665.05,1297.93C3665.05,1191.01 3717.85,1104.3 3782.97,1104.3C3817.02,1104.3 3847.71,1127.96 3869.22,1165.87C3888.91,1200.45 3900.96,1246.9 3900.96,1297.93C3900.96,1299.14 3900.96,1300.35 3900.93,1301.59ZM4268.75,1288.97C4268.75,1346.57 4304.32,1394.34 4350.77,1402.92C4346.87,1331.94 4339.81,1258.28 4329.52,1182.05C4293.92,1199.06 4268.75,1240.55 4268.75,1288.97Z" style="fill:rgb(247,162,25);fill-rule:nonzero;"/>
                    <g id="g31">
                        <path id="path29" d="M4083.55,2410.92C4098.6,2463.68 4116.93,2515.43 4138.85,2565.47C4149.81,2590.49 4161.68,2615.05 4174.45,2639.09L4184.2,2657.01L4189.23,2665.89C4189.98,2667.4 4191.12,2668.72 4191.42,2670.5L4193.88,2674.96C4197.32,2680.82 4201.21,2686.41 4204.38,2692.42C4206.01,2695.41 4207.52,2698.43 4208.84,2701.61C4209.49,2703.19 4209.75,2705.01 4209.68,2707.01C4209.64,2708.03 4209.52,2709.05 4209.41,2710.11L4209.22,2711.7C4209.22,2712.19 4209.18,2712.68 4206.92,2714.53C4206.92,2714.53 4206.77,2714.65 4206.54,2714.8L4205.97,2715.18L4205.37,2715.48C4205.14,2715.59 4204.95,2715.67 4204.95,2715.67C4202.23,2716.76 4201.78,2716.53 4201.36,2716.31L4199.89,2715.67C4198.9,2715.25 4197.96,2714.8 4197.05,2714.34C4195.27,2713.4 4193.8,2712.23 4192.74,2710.87C4190.66,2708.07 4188.74,2705.2 4186.92,2702.21C4183.48,2696.2 4180.72,2689.81 4177.59,2683.65C4170.63,2671.67 4165.34,2658.82 4159.48,2646.35C4148.18,2621.1 4137.86,2595.48 4128.53,2569.55C4109.86,2517.66 4095.01,2464.59 4083.55,2410.92Z" style="fill-rule:nonzero;"/>
                    </g>
                    <g id="g35">
                        <path id="path33" d="M2728.93,2324.11C2720.47,2350.22 2712.42,2376.49 2704.89,2402.87C2701.15,2416.06 2697.52,2429.29 2694.05,2442.56L2691.48,2452.5L2690.19,2457.49C2689.93,2458.32 2689.97,2459.19 2689.25,2459.91L2688.72,2462.44C2688.08,2465.8 2687.92,2469.32 2687.02,2472.61C2686.53,2474.27 2685.96,2475.86 2685.13,2477.44C2684.64,2478.2 2683.88,2478.92 2682.56,2479.48C2681.95,2479.79 2681.31,2480.05 2680.55,2480.32L2679.5,2480.73C2679.31,2480.81 2679.19,2480.88 2678.78,2480.88C2678.29,2480.88 2677.49,2480.81 2676.06,2480.58L2675.64,2480.5L2674.89,2480.35L2674.17,2480.16L2673.79,2480.05C2672.43,2479.64 2671.67,2479.33 2671.22,2479.11C2670.8,2478.92 2670.76,2478.76 2670.65,2478.65L2669.9,2477.82C2669.37,2477.25 2668.91,2476.69 2668.5,2476.16C2667.55,2475.06 2667.21,2474.08 2667.14,2473.17C2667.14,2471.39 2667.33,2469.66 2667.67,2467.96C2668.38,2464.55 2669.86,2461.38 2670.92,2458.05C2672.13,2451.21 2674.2,2444.6 2675.83,2437.87C2679.35,2424.49 2683.01,2411.11 2686.79,2397.81C2694.39,2371.16 2702.48,2344.7 2711.02,2318.4L2728.93,2324.11Z" style="fill-rule:nonzero;"/>
                    </g>
                    <path id="path39" d="M3460.5,1578.03C3431.92,1680.68 3393.3,1775.32 3343.22,1860.93C3311.24,1915.62 3274.58,1966.6 3232.89,2013.66C3051.86,1943.02 2901.2,1839.35 2818.62,1661.82C2728.55,1524.51 2734.68,1387.2 2837.1,1249.93C2838.39,1248.15 2839.71,1246.41 2841.03,1244.67C3059.19,1475.07 3277.19,1704.04 3460.5,1578.03Z" style="fill:rgb(224,145,5);fill-rule:nonzero;stroke:black;stroke-width:18.9px;"/>
                    <path id="path43" d="M3443.6,1578.03C3415.79,1680.68 3378.18,1775.32 3329.39,1860.93C3321.98,1869.47 3314.46,1877.82 3306.71,1886.1C3120.61,1817.35 2965.72,1716.4 2880.83,1543.56C2813.03,1445.67 2798.25,1347.82 2836.53,1249.93C2837.78,1248.15 2839.07,1246.41 2840.35,1244.67C3052.8,1475.07 3265.1,1704.04 3443.6,1578.03Z" style="fill:rgb(247,162,25);fill-rule:nonzero;"/>
                    <path id="path47" d="M2864.13,3218.34C2810.08,3266.19 2756.03,3266.19 2701.98,3218.34C2664.61,3134.59 2582.36,3050.87 2455.29,2967.12C2354,2895.91 2284.65,2819.45 2325.2,2724.93C2307.82,2660.14 2300.37,2598.8 2322.97,2547.82C2331.25,2529.07 2343.65,2511.72 2361.07,2496.15C2435.6,2487.23 2483.68,2494.26 2495.66,2523.06C2496.72,2469.58 2519.24,2425.13 2603.3,2406.43C2622.99,2406.39 2643.18,2425.02 2663.77,2460.02C2667.44,2466.26 2671.14,2473.02 2674.85,2480.32C2666.3,2516.26 2659.28,2550.84 2653.72,2584.1C2627.41,2741.33 2634.18,2869.04 2668.88,2971.88C2705.24,3079.67 2772.28,3160.06 2864.13,3218.34Z" style="fill:rgb(188,76,0);fill-rule:nonzero;stroke:black;stroke-width:18.9px;"/>
                    <path id="path51" d="M2891.04,3052.38C2834.38,3100.23 2777.69,3100.23 2721.03,3052.38C2708.49,3025.55 2691.1,2998.72 2668.88,2971.88C2621.74,2914.96 2552.92,2858.08 2462.4,2801.16C2356.2,2729.95 2283.48,2653.49 2326,2558.97C2324.94,2555.22 2323.92,2551.52 2322.97,2547.82C2331.25,2529.07 2343.65,2511.72 2361.07,2496.15C2435.6,2487.23 2483.68,2494.26 2495.66,2523.06C2496.72,2469.58 2519.24,2425.13 2603.3,2406.43C2622.99,2406.39 2643.18,2425.02 2663.77,2460.02C2657.61,2503.75 2654.32,2545.1 2653.72,2584.1C2650.17,2810.57 2737.62,2959.56 2891.04,3052.38Z" style="fill:rgb(255,103,0);fill-rule:nonzero;"/>
                    <g id="g57">
                        <path id="path53" d="M3329.8,2684.64C3314.04,2689.44 3299.19,2694.05 3285.13,2698.02C3225.3,2634.67 3166.22,2625.68 3107.94,2675.57C3009.11,2841.15 3067.77,3010.7 3194.49,3182.02C3172.12,3255.12 3147.02,3301.3 3119.39,3309.47C3107.41,3309.16 3095.36,3308.71 3083.26,3308.03C3044.07,3298.24 3007.03,3286.53 2972.26,3272.77C2944.82,3261.88 2918.78,3249.71 2894.29,3236.18C2883.97,3230.51 2873.91,3224.54 2864.13,3218.34C2666.19,3092.75 2583.35,2864.39 2674.85,2480.32C2686.83,2429.97 2701.83,2376.98 2719.94,2321.2C2970.52,2299.54 3140.45,2351.92 3236.26,2455.48C3240.04,2459.57 3243.67,2463.68 3247.22,2467.92C3296.32,2526.46 3323.45,2599.94 3329.8,2684.64Z" style="fill:rgb(140,72,12);fill-rule:nonzero;"/>
                        <path id="path55" d="M3337.59,2689.97C3321.6,2696.13 3304.55,2702.14 3287.7,2707.09L3282.29,2708.67L3278.25,2704.48C3266.95,2692.69 3254.85,2681.76 3241.62,2672.88C3228.43,2664 3214.03,2657.27 3199.03,2654.51C3184.06,2651.72 3168.61,2652.89 3154.17,2658.33C3139.69,2663.62 3126.27,2672.35 3114.07,2682.75L3116.03,2680.4C3093.13,2718.69 3076.99,2760.98 3070.87,2805.01C3064.55,2848.97 3068.03,2894.1 3078.84,2937.45C3089.61,2980.88 3107.34,3022.6 3128.69,3062.32C3150.09,3102.09 3175.14,3139.92 3202.05,3176.47L3204.89,3180.32L3203.49,3184.86C3195.89,3209.35 3187.43,3233.73 3176.24,3257.35C3170.57,3269.14 3164.26,3280.78 3156.06,3291.7C3153.9,3294.39 3151.94,3297.15 3149.48,3299.72C3148.27,3301 3147.18,3302.32 3145.89,3303.57L3141.92,3307.24C3136.37,3311.92 3129.94,3316.23 3122.12,3318.61L3120.68,3319.07L3119.21,3318.99L3082.77,3317.56L3081.94,3317.52L3080.99,3317.29C3031.18,3304.82 2982.05,3288.68 2935.07,3267.29C2923.31,3261.92 2911.71,3256.29 2900.3,3250.24C2888.81,3244.35 2877.85,3237.39 2866.66,3230.89C2844.51,3217.51 2823.38,3202.36 2803.43,3185.8C2763.51,3152.62 2729.16,3112.55 2702.55,3067.88C2675.68,3023.28 2657.39,2974.03 2645.44,2923.77C2639.58,2898.56 2635.58,2873.01 2632.63,2847.35C2629.87,2821.68 2628.66,2795.94 2628.28,2770.2C2628.02,2718.73 2632.14,2667.4 2639.13,2616.61C2653.68,2515.01 2679.38,2415.57 2710.94,2318.36L2712.87,2312.39L2719.11,2311.86C2786.27,2306.15 2854.03,2305.17 2921.46,2311.6C2925.66,2312.01 2929.89,2312.28 2934.09,2312.81L2946.67,2314.51C2955.06,2315.68 2963.49,2316.66 2971.84,2318.02C2988.51,2321.24 3005.29,2323.88 3021.73,2328.26C3038.36,2331.86 3054.54,2337.26 3070.83,2342.17L3082.81,2346.6C3086.85,2347.99 3090.63,2349.96 3094.68,2351.36C3096.68,2352.11 3098.68,2352.79 3100.65,2353.59L3106.51,2356.16L3118.22,2361.34C3149.29,2375.47 3179,2393.01 3205.95,2414.4C3212.49,2419.99 3219.21,2425.36 3225.56,2431.18C3231.68,2437.23 3237.85,2443.28 3243.89,2449.4C3255.53,2462.1 3266.34,2475.59 3276.02,2489.88C3295.41,2518.45 3309.85,2550.12 3319.97,2582.85C3325,2599.26 3328.63,2616.04 3330.52,2633.01C3331.12,2637.24 3331.39,2641.51 3331.81,2645.74C3332.22,2649.98 3332.49,2654.21 3332.64,2658.48C3332.79,2662.72 3333.09,2666.95 3333.13,2671.22C3333.16,2675.45 3333.62,2679.68 3330.78,2684.11C3330.78,2684.33 3330.52,2684.52 3330.29,2684.64C3330.07,2684.75 3329.88,2684.79 3329.73,2684.75L3337.59,2689.97ZM3325.42,2678.63C3324.7,2676.47 3324.4,2674.28 3324.02,2672.09C3323.34,2668.01 3322.39,2663.92 3321.56,2659.88C3320.77,2655.8 3319.79,2651.79 3318.84,2647.75C3317.9,2643.74 3317.06,2639.7 3315.89,2635.73C3311.81,2619.74 3307.31,2604.02 3302.14,2588.49C3297.03,2572.99 3291.02,2557.8 3283.92,2543.13C3276.89,2528.47 3268.5,2514.48 3259.5,2500.99C3250.47,2487.5 3240.34,2474.76 3229.42,2462.7L3212.26,2445.35C3206.32,2439.8 3200.01,2434.66 3193.89,2429.25C3168.64,2408.62 3140.37,2391.72 3110.63,2378L3099.4,2372.98L3093.77,2370.44C3091.88,2369.69 3089.91,2369.01 3088.03,2368.25C3084.21,2366.74 3080.16,2365.8 3076.35,2364.28L3064.78,2360.01C3049.02,2355.29 3033.41,2350.07 3017.27,2346.56C3001.36,2342.29 2984.99,2339.72 2968.78,2336.62C2960.62,2335.29 2952.42,2334.35 2944.21,2333.18L2931.93,2331.51C2927.81,2330.99 2923.69,2330.76 2919.57,2330.34C2853.62,2324.03 2786.95,2324.98 2720.69,2330.61L2728.86,2324.11C2697.52,2420.56 2672.13,2519.02 2657.8,2619.14C2650.89,2669.18 2646.88,2719.6 2647.11,2769.98C2647.48,2795.15 2648.66,2820.28 2651.34,2845.27C2654.17,2870.21 2658.1,2895.01 2663.74,2919.42C2675.3,2968.06 2692.88,3015.46 2718.65,3058.17C2744.16,3100.95 2777.01,3139.31 2815.41,3171.25C2834.61,3187.2 2854.98,3201.79 2876.41,3214.72C2887.26,3220.99 2897.8,3227.72 2908.99,3233.46C2920.06,3239.32 2931.36,3244.84 2942.78,3250.02C2988.47,3270.84 3036.55,3286.64 3085.45,3298.89L3083.68,3298.62L3119.51,3300.06L3116.6,3300.43C3120.98,3299.07 3125.33,3296.32 3129.45,3292.84L3132.47,3290.08C3133.45,3289.13 3134.4,3288 3135.35,3286.98C3137.31,3284.98 3139.01,3282.56 3140.83,3280.29C3147.89,3270.92 3153.79,3260.18 3159.08,3249.11C3169.62,3226.89 3177.9,3203.19 3185.31,3179.26L3186.75,3187.65C3159.42,3150.58 3133.87,3112.03 3111.91,3071.24C3089.99,3030.5 3071.66,2987.38 3060.4,2941.98C3049.1,2896.7 3045.32,2848.97 3052.04,2802.33C3058.51,2755.65 3075.7,2710.83 3099.7,2670.73L3100.5,2669.37L3101.67,2668.38C3115.12,2656.97 3130.36,2646.92 3147.63,2640.57C3164.83,2634.1 3184.18,2632.52 3202.32,2635.96C3220.53,2639.32 3237.28,2647.29 3251.98,2657.2C3266.76,2667.14 3279.8,2678.97 3291.86,2691.51L3282.41,2688.91C3295.33,2684.94 3308.03,2682.03 3321.86,2679.27L3325.42,2678.63Z" style="fill-rule:nonzero;"/>
                    </g>
                    <path id="path65" d="M3320.39,2682.22C3304.63,2686.98 3289.78,2691.55 3275.72,2695.48C3215.89,2632.7 3156.81,2623.82 3098.53,2673.22C2999.7,2837.29 3058.36,3005.25 3185.08,3174.99C3162.71,3247.41 3137.61,3293.18 3109.98,3301.27C3098,3300.96 3085.95,3300.51 3073.85,3299.83C3034.66,3290.12 2997.62,3278.51 2962.85,3264.91C2816.66,3132.93 2763.78,2918.36 2843.6,2586.41C2855.58,2536.52 2870.59,2484.02 2888.69,2428.76C3024.87,2417.08 3137.24,2427.1 3226.85,2455.14C3230.63,2459.19 3234.26,2463.27 3237.81,2467.47C3286.9,2525.52 3314.04,2598.31 3320.39,2682.22Z" style="fill:rgb(102,50,12);fill-rule:nonzero;"/>
                    <path id="path69" d="M3725.86,3154.58C3689.95,3185.5 3649.1,3218.68 3603.21,3254.21C3509.71,3340.01 3418.85,3373.76 3331.31,3343.94C3318.05,3329.73 3305.05,3315.51 3292.38,3301.3C3256.86,3261.47 3223.86,3221.71 3194.49,3182.02C3097.25,3050.57 3040.1,2920.14 3063.42,2791.75C3070.49,2752.82 3084.93,2714.08 3107.94,2675.57C3166.22,2625.68 3225.3,2634.67 3285.13,2698.02C3299.19,2694.05 3314.04,2689.44 3329.8,2684.64C3383.96,2668.12 3449.16,2648.99 3531.82,2643.51C3609.64,2650.7 3663.68,2700.43 3706.77,2769.79C3748.16,2808.53 3787.39,2826.44 3823.37,2812.38C3861.13,2817.86 3893.6,2825.91 3911.74,2840.42C3972.36,2888.84 3915.7,2991.01 3725.86,3154.58Z" style="fill:rgb(188,76,0);fill-rule:nonzero;stroke:black;stroke-width:18.9px;"/>
                    <path id="path73" d="M3907.58,2842.2C3877.27,2893 3817.59,2957.29 3725.86,3036.28C3689.95,3067.2 3649.1,3100.38 3603.21,3135.91C3509.71,3221.71 3418.85,3255.46 3331.31,3225.64C3318.05,3211.43 3305.05,3197.22 3292.38,3183.01C3256.86,3143.17 3223.86,3103.41 3194.49,3063.72C3126.95,2972.45 3078.76,2881.7 3063.42,2791.75C3070.49,2752.82 3084.93,2714.08 3107.94,2675.57C3166.22,2625.68 3225.3,2634.67 3285.13,2698.02C3299.19,2694.05 3314.04,2689.44 3329.8,2684.64C3383.96,2668.12 3449.16,2648.99 3531.82,2643.51C3609.64,2650.7 3663.68,2700.43 3706.77,2769.79C3748.16,2808.53 3787.39,2826.44 3823.37,2812.38C3861.13,2817.86 3889.44,2827.69 3907.58,2842.2Z" style="fill:rgb(255,103,0);fill-rule:nonzero;"/>
                    <path id="path95" d="M4442.38,1554.18C4425.56,1558.15 4408.86,1561.78 4392.26,1565.14C4390.38,1565.52 4388.48,1565.9 4386.6,1566.24C4382.55,1567.07 4378.51,1567.82 4374.46,1568.58C4372.46,1569 4370.46,1569.34 4368.45,1569.71C4363.46,1570.66 4358.48,1571.57 4353.52,1572.4C4343.28,1574.21 4333.11,1575.87 4322.99,1577.42C4317.92,1578.18 4312.86,1578.93 4307.83,1579.65C4306.66,1579.84 4305.52,1579.99 4304.39,1580.14C4301.59,1580.56 4298.84,1580.94 4296.04,1581.28C4289.88,1582.15 4283.75,1582.9 4277.67,1583.62C4273.59,1584.11 4269.51,1584.61 4265.46,1585.06C4264.44,1585.17 4263.42,1585.29 4262.44,1585.4C4262.21,1585.44 4262.02,1585.44 4261.83,1585.44C4257.15,1585.97 4252.46,1586.46 4247.77,1586.91C4242.82,1587.44 4237.83,1587.89 4232.92,1588.31C4228.42,1588.72 4223.96,1589.1 4219.5,1589.44C4213.11,1589.97 4206.77,1590.42 4200.42,1590.8C4196.33,1591.07 4192.25,1591.29 4188.21,1591.52C4183.48,1591.79 4178.8,1592.01 4174.15,1592.24C4167.38,1592.54 4160.65,1592.81 4153.97,1592.96C4151.81,1593.03 4149.62,1593.11 4147.46,1593.15C4142.36,1593.3 4137.26,1593.37 4132.19,1593.41C4126.94,1593.49 4121.65,1593.52 4116.44,1593.52C4068.13,1593.52 4020.85,1590.8 3974.51,1585.47C3965.37,1584.45 3956.22,1583.28 3947.15,1582.04C3900.93,1575.68 3855.72,1566.77 3811.39,1555.43C3805.23,1553.88 3799.11,1552.25 3792.98,1550.59C3788.41,1549.38 3783.87,1548.09 3779.34,1546.77C3772.76,1544.96 3766.22,1543.03 3759.72,1541.03C3706.28,1524.93 3654.12,1505.27 3603.21,1482.41C3634.58,1473.37 3665.08,1463.58 3694.26,1452.62C3695.47,1452.21 3696.68,1451.75 3697.89,1451.3C3701.41,1449.98 3704.88,1448.62 3708.36,1447.26C3709.42,1446.84 3710.47,1446.42 3711.5,1445.97C3711.53,1446.01 3711.57,1445.97 3711.57,1445.97C3757.76,1427.6 3800.2,1405.98 3836.83,1379.23C3854.36,1362.44 3872.58,1349.33 3891.55,1339.69C3928.44,1320.94 3968.09,1315.2 4010.72,1320.68C4011.93,1320.83 4013.18,1320.98 4014.39,1321.17C4014.61,1321.17 4014.8,1321.21 4015.03,1321.25C4018.96,1321.81 4022.93,1322.49 4026.93,1323.29C4027.31,1323.36 4027.73,1323.44 4028.11,1323.52C4071.35,1331.94 4117.53,1351.26 4166.74,1379.68C4189.23,1392.64 4212.32,1407.5 4236.06,1424.09C4253.06,1434.07 4269.92,1444.04 4286.59,1454.06C4294.19,1458.63 4301.74,1463.17 4309.23,1467.78C4314.63,1471.03 4319.96,1474.32 4325.29,1477.61C4327.71,1479.08 4330.13,1480.59 4332.55,1482.1C4334.97,1483.58 4337.39,1485.05 4339.77,1486.56C4344.57,1489.55 4349.33,1492.57 4354.09,1495.56C4354.7,1495.94 4355.3,1496.32 4355.9,1496.69C4385.95,1515.7 4414.9,1534.83 4442.38,1554.18Z" style="fill:rgb(226,113,10);fill-rule:nonzero;stroke:black;stroke-width:18.9px;stroke-linecap:square;stroke-linejoin:round;"/>
                    <path id="path97" d="M4353.18,1509.85C4104.38,1569.94 3888.15,1541.59 3694.26,1452.62C3693.66,1452.36 3693.01,1452.09 3692.41,1451.79C3697.7,1450.24 3702.95,1448.65 3708.17,1447.03C3709.3,1446.69 3710.4,1446.35 3711.5,1445.97C3711.53,1446.01 3711.57,1445.97 3711.57,1445.97C3730.58,1440 3749.1,1433.61 3766.98,1426.66C3769.74,1425.56 3772.46,1424.47 3775.22,1423.37C3812.56,1408.29 3846.88,1390.49 3876.36,1368.38C3890.19,1354.81 3904.52,1344.19 3919.45,1336.4C3947.75,1321.62 3978.14,1316.83 4010.72,1320.68C4011.93,1320.83 4013.18,1320.98 4014.39,1321.17C4014.61,1321.17 4014.8,1321.21 4015.03,1321.25C4018.96,1321.81 4022.93,1322.46 4026.93,1323.29C4027.31,1323.36 4027.73,1323.44 4028.11,1323.52C4061.82,1330.47 4097.8,1346 4136.13,1368.72C4153.85,1379.23 4172.03,1391.21 4190.7,1404.62C4223.02,1424.09 4254.73,1443.63 4285.08,1463.36C4308.74,1478.7 4331.53,1494.2 4353.18,1509.85Z" style="fill:rgb(255,145,46);fill-rule:nonzero;"/>
                    <path id="path99" d="M4442.38,1554.18C4408.93,1585.32 4373.63,1612.72 4336.33,1635.93C4244.98,1692.78 4141.45,1724.41 4022.82,1724.64C3874.43,1694.17 3760.37,1646.89 3683.6,1581.35C3649.28,1552.06 3622.38,1519.11 3603.21,1482.41C3850.05,1593.22 4125.39,1628.75 4442.38,1554.18Z" style="fill:rgb(198,89,0);fill-rule:nonzero;stroke:black;stroke-width:18.9px;stroke-linecap:square;stroke-linejoin:round;"/>
                    <path id="path103" d="M4333.72,1576.48C4242.37,1633.32 4138.85,1664.96 4020.21,1665.18C3871.82,1634.72 3757.76,1587.44 3680.99,1521.9C3878.32,1593.56 4093.83,1617.22 4333.72,1576.48Z" style="fill:rgb(117,18,18);fill-rule:nonzero;stroke:black;stroke-width:18.9px;stroke-linecap:square;stroke-linejoin:round;"/>
                    <path id="path105" d="M3733.42,1251.21C3733.42,1310.06 3773.71,1357.76 3823.37,1357.76C3852.36,1357.76 3878.17,1341.54 3894.61,1316.37C3893.9,1324.35 3892.88,1332.13 3891.55,1339.69C3872.58,1349.33 3854.36,1362.44 3836.83,1379.23C3800.2,1405.98 3757.76,1427.6 3711.57,1445.97C3711.57,1445.97 3711.53,1446.01 3711.5,1445.97C3710.4,1446.35 3709.3,1446.69 3708.17,1447.03C3677.48,1411.73 3657.41,1353.34 3657.41,1287.27C3657.41,1179.52 3710.82,1092.17 3776.66,1092.17C3811.09,1092.17 3842.12,1116.02 3863.85,1154.19C3883.77,1189.04 3895.94,1235.83 3895.94,1287.27C3895.94,1288.52 3895.94,1289.73 3895.9,1290.97C3895.03,1238.4 3882.26,1190.7 3861.77,1154.8C3850.13,1148.26 3837.13,1144.63 3823.37,1144.63C3773.71,1144.63 3733.42,1192.33 3733.42,1251.21Z" style="fill:white;fill-rule:nonzero;stroke:black;stroke-width:18.9px;"/>
                    <g id="path1051" serif:id="path105" transform="matrix(-1.13822,-0.0695161,-0.0617677,1.01135,8685.55,285.345)">
                        <path d="M3863.85,1154.19C3872.55,1169.47 3888.35,1200.9 3894.55,1242.03C3901.56,1288.47 3898.19,1337.85 3896.66,1341.81C3877.68,1351.44 3718.49,1450.56 3717.36,1450.9C3686.67,1415.6 3657.41,1353.34 3657.41,1287.27C3657.41,1179.52 3710.82,1092.17 3776.66,1092.17C3811.09,1092.17 3842.12,1116.02 3863.85,1154.19Z" style="fill:white;fill-rule:nonzero;stroke:black;stroke-width:18.9px;"/>
                    </g>
                    <path id="path107" d="M3711.5,1445.97C3710.47,1446.42 3709.42,1446.84 3708.36,1447.26C3708.28,1447.18 3708.25,1447.11 3708.17,1447.03C3709.3,1446.69 3710.4,1446.35 3711.5,1445.97Z" style="fill:none;fill-rule:nonzero;stroke:black;stroke-width:18.9px;"/>
                    <g id="g111">
                        <path id="path109" d="M4052.22,1422.31C4057.06,1419.93 4061.18,1419.36 4065.07,1419.4C4068.96,1419.44 4072.48,1420.35 4075.81,1421.75C4079.13,1423.14 4082.27,1425.11 4085.14,1427.64C4088.01,1430.25 4090.66,1433.31 4092.78,1437.88L4092.25,1439.21C4087.6,1441.1 4083.55,1441.47 4079.66,1441.44C4075.81,1441.29 4072.21,1440.57 4068.81,1439.32C4065.41,1438.07 4062.24,1436.3 4059.36,1433.65C4056.53,1431.01 4053.88,1427.79 4052.03,1422.73L4052.22,1422.31Z" style="fill-rule:nonzero;"/>
                    </g>
                    <g id="g115">
                        <path id="path113" d="M3964.69,1408.4C3962.34,1413.09 3959.58,1415.85 3956.67,1417.96C3953.76,1420.08 3950.63,1421.4 3947.38,1422.09C3944.13,1422.8 3940.72,1422.84 3937.17,1422.27C3933.58,1421.56 3929.91,1420.38 3925.8,1417.4C3928.18,1412.94 3930.97,1410.22 3933.88,1408.03C3936.83,1405.95 3939.89,1404.51 3943.14,1403.72C3946.36,1402.88 3949.72,1402.7 3953.31,1403.34C3956.83,1403.94 3960.53,1405.23 3964.69,1408.4Z" style="fill-rule:nonzero;"/>
                    </g>
                    <path id="path117" d="M3861.77,1154.8C3850.13,1148.26 3837.13,1144.63 3823.37,1144.63C3773.71,1144.63 3733.42,1192.33 3733.42,1251.21C3733.42,1310.06 3773.71,1357.76 3823.37,1357.76C3852.36,1357.76 3878.17,1341.54 3894.61,1316.37C3894.99,1312.52 3895.26,1308.62 3895.48,1304.69C3895.71,1300.31 3895.86,1295.89 3895.9,1291.43L3895.9,1290.97C3895.03,1238.4 3882.26,1190.7 3861.77,1154.8ZM3848.62,1251.21C3834.9,1251.21 3823.79,1233.34 3823.79,1211.3C3823.79,1189.27 3834.9,1171.39 3848.62,1171.39C3862.34,1171.39 3873.45,1189.27 3873.45,1211.3C3873.45,1233.34 3862.34,1251.21 3848.62,1251.21Z" style="fill-rule:nonzero;stroke:black;stroke-width:18.9px;"/>
                    <path id="path119" d="M3895.94,1296.57C3895.94,1302.8 3895.79,1309 3895.45,1315.12C3895.18,1315.54 3894.92,1315.96 3894.61,1316.37C3894.99,1312.52 3895.26,1308.62 3895.48,1304.69C3895.71,1300.31 3895.86,1295.89 3895.9,1291.43C3895.94,1293.16 3895.94,1294.87 3895.94,1296.57Z" style="fill:none;fill-rule:nonzero;stroke:black;stroke-width:18.9px;"/>
                    <path id="path121" d="M4383.61,1164.02C4377.86,1162.77 4371.93,1162.13 4365.88,1162.13C4352.96,1162.13 4340.56,1165.12 4329.26,1170.52C4293.24,1187.68 4267.81,1229.48 4267.81,1278.27C4267.81,1336.33 4303.75,1384.44 4350.73,1393.1C4355.68,1394 4360.74,1394.46 4365.88,1394.46C4392.64,1394.46 4416.91,1381.76 4434.6,1361.16C4436.79,1347.48 4437.92,1333.27 4437.92,1318.68C4437.92,1255.67 4416.64,1199.66 4383.61,1164.02ZM4382.93,1285.04C4367.36,1285.04 4354.73,1264.74 4354.73,1239.72C4354.73,1214.7 4367.36,1194.41 4382.93,1194.41C4398.54,1194.41 4411.16,1214.7 4411.16,1239.72C4411.16,1264.74 4398.54,1285.04 4382.93,1285.04Z" style="fill-rule:nonzero;stroke:black;stroke-width:18.9px;"/>
                    <ellipse id="ellipse123" cx="3848.62" cy="1211.3" rx="24.831" ry="39.912" style="fill:white;stroke:black;stroke-width:18.9px;"/>
                    <path id="path125" d="M4411.16,1239.72C4411.16,1264.74 4398.54,1285.04 4382.93,1285.04C4367.36,1285.04 4354.73,1264.74 4354.73,1239.72C4354.73,1214.7 4367.36,1194.41 4382.93,1194.41C4398.54,1194.41 4411.16,1214.7 4411.16,1239.72Z" style="fill:white;fill-rule:nonzero;stroke:black;stroke-width:18.9px;"/>
                    <path id="path127" d="M3292.38,3301.3C3235.62,3308.3 3177.94,3310.98 3119.39,3309.47C3147.02,3301.3 3172.12,3255.12 3194.49,3182.02C3223.86,3221.71 3256.86,3261.47 3292.38,3301.3Z" style="fill:rgb(201,155,27);fill-rule:nonzero;stroke:black;stroke-width:18.9px;"/>
                </g>
            </g>
        </g>
    </g>
</svg>
